<mxfile host="65bd71144e">
    <diagram id="zQNRsYLugDCY4tZxFQe2" name="Page-1">
        <mxGraphModel dx="2338" dy="1139" grid="1" gridSize="10" guides="1" tooltips="1" connect="1" arrows="1" fold="1" page="1" pageScale="1" pageWidth="850" pageHeight="1100" math="0" shadow="0">
            <root>
                <mxCell id="0"/>
                <mxCell id="1" parent="0"/>
                <mxCell id="6" value="" style="group" parent="1" vertex="1" connectable="0">
                    <mxGeometry x="110" y="230" width="255" height="50" as="geometry"/>
                </mxCell>
                <mxCell id="3" value="" style="sketch=0;points=[[0.5,0,0],[1,0.5,0],[0.5,1,0],[0,0.5,0],[0.145,0.145,0],[0.8555,0.145,0],[0.855,0.8555,0],[0.145,0.855,0]];verticalLabelPosition=bottom;html=1;verticalAlign=top;aspect=fixed;align=center;pointerEvents=1;shape=mxgraph.cisco19.rect;prIcon=router;fillColor=#FAFAFA;strokeColor=#005073;" parent="6" vertex="1">
                    <mxGeometry width="50" height="50" as="geometry"/>
                </mxCell>
                <mxCell id="7" value="" style="endArrow=none;html=1;entryX=0;entryY=0.5;entryDx=0;entryDy=0;entryPerimeter=0;exitX=0.5;exitY=0;exitDx=0;exitDy=0;" parent="1" source="5" target="3" edge="1">
                    <mxGeometry width="50" height="50" relative="1" as="geometry">
                        <mxPoint x="-170" y="310" as="sourcePoint"/>
                        <mxPoint x="-120" y="260" as="targetPoint"/>
                    </mxGeometry>
                </mxCell>
                <mxCell id="18" value="e1-1" style="edgeLabel;html=1;align=center;verticalAlign=middle;resizable=0;points=[];" parent="7" vertex="1" connectable="0">
                    <mxGeometry x="0.8205" relative="1" as="geometry">
                        <mxPoint x="-9" y="-15" as="offset"/>
                    </mxGeometry>
                </mxCell>
                <mxCell id="21" value="eth1: VLAN 2-6" style="edgeLabel;html=1;align=center;verticalAlign=middle;resizable=0;points=[];" parent="7" vertex="1" connectable="0">
                    <mxGeometry x="-0.7278" y="2" relative="1" as="geometry">
                        <mxPoint x="25" as="offset"/>
                    </mxGeometry>
                </mxCell>
                <mxCell id="10" value="" style="group" parent="1" vertex="1" connectable="0">
                    <mxGeometry x="-310" y="380" width="210" height="120" as="geometry"/>
                </mxCell>
                <mxCell id="5" value="" style="rounded=0;whiteSpace=wrap;html=1;" parent="10" vertex="1">
                    <mxGeometry x="90" y="60" width="120" height="60" as="geometry"/>
                </mxCell>
                <mxCell id="9" value="container:&amp;nbsp;&lt;span style=&quot;color: rgb(163, 21, 21); background-color: rgb(255, 255, 255); font-family: Consolas, &amp;quot;Courier New&amp;quot;, monospace; font-size: 14px;&quot;&gt;core-md-0-&lt;/span&gt;&lt;br&gt;img: kindest/node:v1.26.3" style="text;html=1;align=center;verticalAlign=middle;resizable=0;points=[];autosize=1;strokeColor=none;fillColor=none;" parent="10" vertex="1">
                    <mxGeometry width="160" height="40" as="geometry"/>
                </mxCell>
                <mxCell id="14" value="" style="group" parent="1" vertex="1" connectable="0">
                    <mxGeometry y="385" width="215" height="110" as="geometry"/>
                </mxCell>
                <mxCell id="12" value="container:&amp;nbsp;&lt;span style=&quot;color: rgb(163, 21, 21); background-color: rgb(255, 255, 255); font-family: Consolas, &amp;quot;Courier New&amp;quot;, monospace; font-size: 14px;&quot;&gt;regional-md-0-&lt;/span&gt;&lt;br&gt;img: kindest/node:v1.26.3" style="text;html=1;align=center;verticalAlign=middle;resizable=0;points=[];autosize=1;strokeColor=none;fillColor=none;" parent="14" vertex="1">
                    <mxGeometry x="-10" y="10" width="190" height="40" as="geometry"/>
                </mxCell>
                <mxCell id="13" value="" style="rounded=0;whiteSpace=wrap;html=1;" parent="14" vertex="1">
                    <mxGeometry x="120" y="50" width="120" height="60" as="geometry"/>
                </mxCell>
                <mxCell id="16" value="" style="endArrow=none;html=1;entryX=1;entryY=0.5;entryDx=0;entryDy=0;entryPerimeter=0;exitX=0.5;exitY=0;exitDx=0;exitDy=0;" parent="1" source="8" target="3" edge="1">
                    <mxGeometry width="50" height="50" relative="1" as="geometry">
                        <mxPoint x="50" y="400" as="sourcePoint"/>
                        <mxPoint x="100" y="350" as="targetPoint"/>
                    </mxGeometry>
                </mxCell>
                <mxCell id="20" value="e1-2" style="edgeLabel;html=1;align=center;verticalAlign=middle;resizable=0;points=[];" parent="16" vertex="1" connectable="0">
                    <mxGeometry x="0.7517" y="2" relative="1" as="geometry">
                        <mxPoint as="offset"/>
                    </mxGeometry>
                </mxCell>
                <mxCell id="23" value="eth1: VLAN 2-6" style="edgeLabel;html=1;align=center;verticalAlign=middle;resizable=0;points=[];" parent="16" vertex="1" connectable="0">
                    <mxGeometry x="-0.4727" y="-2" relative="1" as="geometry">
                        <mxPoint as="offset"/>
                    </mxGeometry>
                </mxCell>
                <mxCell id="17" value="" style="endArrow=none;html=1;entryX=0.5;entryY=1;entryDx=0;entryDy=0;entryPerimeter=0;exitX=0.5;exitY=0;exitDx=0;exitDy=0;" parent="1" source="13" target="3" edge="1">
                    <mxGeometry width="50" height="50" relative="1" as="geometry">
                        <mxPoint x="-50" y="580" as="sourcePoint"/>
                        <mxPoint y="530" as="targetPoint"/>
                    </mxGeometry>
                </mxCell>
                <mxCell id="19" value="e1-3" style="edgeLabel;html=1;align=center;verticalAlign=middle;resizable=0;points=[];" parent="17" vertex="1" connectable="0">
                    <mxGeometry x="0.848" relative="1" as="geometry">
                        <mxPoint as="offset"/>
                    </mxGeometry>
                </mxCell>
                <mxCell id="22" value="eth1: VLAN 2-6" style="edgeLabel;html=1;align=center;verticalAlign=middle;resizable=0;points=[];" parent="17" vertex="1" connectable="0">
                    <mxGeometry x="-0.3848" y="1" relative="1" as="geometry">
                        <mxPoint as="offset"/>
                    </mxGeometry>
                </mxCell>
                <mxCell id="4" value="container:&amp;nbsp;net-5g-leaf&lt;br&gt;img: ghcr.io/nokia/srlinux:22.11.2-116" style="text;html=1;align=center;verticalAlign=middle;resizable=0;points=[];autosize=1;strokeColor=none;fillColor=none;" parent="1" vertex="1">
                    <mxGeometry x="160" y="210" width="220" height="40" as="geometry"/>
                </mxCell>
                <mxCell id="24" value="" style="shape=image;verticalLabelPosition=bottom;labelBackgroundColor=default;verticalAlign=top;aspect=fixed;imageAspect=0;image=data:image/png,iVBORw0KGgoAAAANSUhEUgAAAjcAAAJiCAYAAAA7a+PqAAAAAXNSR0IArs4c6QAAAARnQU1BAACxjwv8YQUAAAAJcEhZcwAADsMAAA7DAcdvqGQAAKBfSURBVHhe7Z0/b6s+F8fP73kbXaLeLndmzIZUdSqvgIwZulR3y8qa7apLh4zkFdCpqsSWMfNd2oqlr6OP/2EMMYR/IZR8P5LVJsHY2MeHY/vY/o+IvlkAAAAAAJgE/1N/AQAAAAAmAYwbAAAAAEwKGDcAAAAAmBQwbgAAAAAwKYY3bvyQvr6+CiEkX/08Ohyfwl0hv+Foc5vDCXY/Kr+NcQLajV1+huAHy+iYmXz7AWDClBo3fpgqyh0Fjvry0uAvz2hN7kx9BmBsQEbBlHAc8oOQdoaxvmv1AnIoUPew2qa9pQPGSolx49Odq/6lGd3e91jp2wVdXV3J4G0oUV+PEef+lj09I9mQl+aZh8VW/G5D9vYMg1CNLqDh/FDSkcZdwNTl+GgjoxfPyOt0tJy63Pj9o4jWS5dmXY11/w8t+T1Yu/hbbAp9pgNGi9248e9I2zaM2e39RSqB37+k5CdvL7QX/x3DoftbFid5oxcVIX35fL7XuwNowD6guXiZL+hSX+XNZRSAEZMkFG9W5HlXtIrVd41xKHiQb7D4ObC3i17SAWPGatz46bANEwAxsjK7pT4HbyaLc0/ctmGWjG5Q8uUT0ys60gAAUA4f1Z/PaRFsad/FUk9Hbcr0bl/pgFFjMW6yKan4+ZHepHVDv36Lr87M4Tzp1y6kwC+zvBxy/IDCnXIM1HF2FAa+ZTTKp9C4bq3KYbaM8vHLHAx//xKjNLFuUaos49f+RhYcn4JwpxxpVSh9HhPWm2HxsjghlRYbx5LO7qCsj8xrm2jn344+XOnQeC6UOxTnnULrlUHmb8ZCJgQUpd+pYH/mpjLKKDpGs8+mg/COJZTFbiujTdtCxmE8JhdhUCE/LcqgFfXT6VannIbtp00ZNJCDNnKdMWS5DU/aOU82fy92RBfYjBs9JcWt3j29SOuG3Ltj0pu96E4zJ8vvb5knnbm0XEdWnxY/jChaL8ktTqyyz+5yTRFXAuqrdhjPzINq/O46/W4ty9Jdq88dX+xc+UVrWroz6WeRop7nqfTmN6LseDwNK7d1VPL8JenMDsp6T++f8r+j8qEMP3PKblgalkErmsvoAaLsucyqz4wZk58/HTPZri1I+T6Mx+TCXdL6ydbOeyiDWgyVDqep7AwpB2fI25hh5SZnpGJ6DjAsc8kcGDd6SkqNNuyzt1ePL4HmcOWcDjWuvMxx0ttI42u2fLIYDnxedcOu9zJHSx7HW7G7MFiDfshF2tLCuC6di002+fjnctbUzqOFMrhiz7faxKRq6hD2IrqlzOHUW6WO3C4d2iRM+T0tlSFipsPSiA/LevuqCun6hsUsx7m5lv8YU3ataOuQ3qAMtov0mVnIhCDvsMtCUQzayajJNT2wsmdCK3wBdHyWhw91RXsZbdoWzOdhcVde7vlFPIvAdS+DejRNp22dChq1n6HkQHHivHUqtzPg/5G6C6M2gMMPzlTB+WY9te+vr6/v0E+/879D9jn/nS1kcb92wTdrH5ZrCsEJvnfi3uE3a4f2a3jQ1+2+WcM7+N0PZbqs13HwW2nwQ5nX0Lf/zkKz+6pyMu4n4x95tgah6XM6wU4+oyUP6b0Onr+yrLM61nmoVYeWeH2EGmm3KgMzpHJyTKa7yKiOeyQvltBUJqzB1haMPFW3eyN0KYMmoWs6Neu0//bTnxwMnjce6raFnsLR/BTDkecrC43TQfgRIT9ykzrEMtv/45/4hrGltHNePfWwp2CuLPl5iYd6W45MaaSjBzOLY1DqL8CEXk0NqZDOHx8ZcaiNms47pb/Nv4+0dxWR9JUIyPed4/lPPkhXpyK91wGVZZ1NU+qy3r+rESOjp5j6xeiJ+N8kF/Uk9HaeOalmZdCGDjJqkslP/zRqC/p5LEtpy+ipDI4yVDopvbWfE8jBGfI2VvTIdvxMmJECOeMm2zMjL/yp0J9rakpPaVgc2UqVM8MPd9pfQDzXCZHTeYZ3vjJ2ksxK7Mw+eCQ1eszKgvtKLGm9jkSZcAfPUiOnwVTQsekjPU2pyzozfq9v5Dd6ajO9RvtxfdLZVsR3nQ47QlsZzWN2KvqlaVtoM43YTxkcZ6h0NIOXQQM5GGH9aLjfkCWdXdDL3Qv49EfMtyW0qW2NgyljGDdqjxZOUfhToS+Zxx0lwrFMPk8Sy/0MzDliPX/cGtuqFZfWhTLLVrH04biqRse8lfCxiZUPDIc7eEZnWrKgR5TEfkhyxCqJY0rUFgJaqfa5amySnMj4O3lbAP1yxk7AD8UJHmQHCqM2QJEZN3pKqpq0dz4kerSAKeacUi4GYzrM3Ln1cbE92M9Av3B/IvstbYMFLRZz8dypM2AfI2uHIzN5dLkZPcb9yxvrLzFmv+i3GKVJ6O3vX3pL+O7Wvjaa+xzFGhttZHQo2rSFY3JgY6gyGHNZI28GepPNfJj3bn2kozbs0U44rQt+Ftq4MRVg0ROeB+1N3+duxdpf45oqbaZ/H/Ll2eblbR22NUapWmOsWlE933iVlpdagZJTIqfbRVcbF32QlrV148as3HKGilGPDw/sRSmmNeUy8dntgzaaJ71LcxcZHYombUHLwbL+MvShymDMZY28DU867d3EPwxMHm3cHNvGPeudl+1WzPdPUFMytfe5+UdyRmNGS6ZBS+OwHsCzsBZcWosNqswr5eZkfBMrc1ZG91LcNfveuF6coJwuh+yHIfxtZPmqDddyj+9nS7f7YP+iN25cPvGyFt8yHPLDJ1VuRcfgrB5ns5mWIeGrpX08fuguzbmXfKmEtpLRoWjVFvTz8Gg833nHdYfHLfp5DVUGXdOpW6dtGLEcjLrcWsP04rGjFsBFooybdFfiitUsxkuvv4M09xRkGjTn51NsYNuFJ51pxQZV5m6scnOy3CZWnO1f7Xzrro3rxQnKMa168zNQZWesWpDD/KdYGaQ2XIvSZ5fPk76c4lUfo0OsTh7VXhmirNO0Ilqnfhubx8K8draKKvfc21c5gsWxrOpoTNFBMUqNOpZP8/te/JsUWu4LcsRCZxkdipZtQT8PlzvluJ7GjXhcy8zuUGXQKZ0GddqG0coBY8zlxnXp0d23ix3nqgMyS2mRDvhxSOOm1moWYxlwn1NT24XceEo1mnK4M60nNrLKX5tQEm9os/IKG0nJ6/nGc+bl/NqV1+MUkXNDwpTRI16Hh2f2g3qeDX/+fGElarO93jbSYj28ubeiTbHsWDq8nG1z5np0IPfc2Uqqn3uwoyz3YlnYaSqjQ9G2LfB4cmO4OPdA8nlWj7ae8lBl0CUdGbdenbZhqDJow5jLrSkYtQHl/McC3/AGAAAA+DnwkVwxess6dyf0aQQ/k2y1FAAAAPBDwFELoAqM3AAAAABgUmDkBgAAAACTAsYNAAAAACYFjBsAAAAATAoYNwAAAACYFDBuAAAAADApYNwAAAAAYFLAuAEAAADApIBxAwAAAIBJAeMGAAAAAJMCxg0AAAAAJgWMGwAAAABMChg3AAAAAJgU6uBMn8KvNbnyu6PEqytabBEHcRAHcRCHgziIw0Gc8cTByA0AAAAAJoUauQEAAAAAmAYYuQEAAADApIBxAwAAAIBJAYdiBuIgDgdxEIeDOIjDQZyfHQcjNwAAAACYFHAoBgAAAMCkwMgNAAAAACYFjBsAAAAATAoYNwAAAACYFDBuAAAAADApYNwAAAAAYFLAuAEAAADApIBxAwAAAIBJAeMGAAAAAJMCxg0AAAAAJgWMGwAAAABMChg3AAAAAJgUMG4AAAAAMCkGN26cYEdfX1/0FfrqGwBa4gS047L0FRKkCXTCD6Ve2gXkqK8AAD8XjNxcAo5DfhDSbscNARl2QRsV7lCg7mG1TXtLB4AfTqu2wOKEO2WwqzhhQP7RaD4FhXhfux1row4MtbOQ6UkebLrSD+Vv0I+noz/jBj2fdpy63Pj9o4jWS5dmM/VdW/w/tOT3SDb0dyu/0vSZDgA/mVZtgb8QWRx3RmaUmbukdbSjsnegGAmP1rQsxOMJu+uIns798sR7gdw7jCufA4zcXAJJQvFmRZ53RatYfdcYpnwfXPFf/BzQXvxXoJd0GrAPaH51RVdXCyraWgCclYZtwQmeZMeBEtqsPCbTTK69FW0S/t2Mlk8W44AZDpGMREnM0hJtQQXPo9Umpk/xKzgr7h2mzc8AjJups13Q1XxOi2BLe6tFUpN01IZierVZEn2lA8BPp3Fb8OmPMlLi1ZyCrYq031LwuGHmDmN2S/c56ybrbCQbj+YLlpb4pGAJb4MFywMa4zlJmJHLrBt6wPTT4FiMm8O54q9dSIFl4jedNxRhLRsazZYUpd+pUO47zBpoqByMeWDpVM8v18+bpuh0yj6H5jw4y1waO+/sfLq8dS+34fHvUkX697yjJOkwdy7UcCgu80sIsvrvQpWjfNlvx+StUq6HokG5dXueFm27TRz1PLnrz13Mzg1di38sHYd9QM9i5GdGt6Z1Y3Q2nkdmwLTSb7pdl7VlJk+qnlM/leHlrQVvb6yGuG16z1KsiaXN7UrydqwMqh9noDI4EwXjhguQZa545tJyHfXs/HQj0uJzxRqWzjqqEu6OeeOGTrSkfJJr+nOQ4BnyNmZYuclO4vgUaS1EvZf4JSzX5/dLoDsKvw7l7eyy07rcmj5Pm/bTIo7xPBp+fcRetHfq8zn4/UuWb/JB/8QXef59iLEbmv36Lf5ynBtpDlH8Oo0p2e1fNQVXMsrh3NOtLCR6eynqoCHkrS0v9Jc/GDPuDt8zFkra3Oxo3vDOKpIzbvyQFY540JhWXjZ/60mpY/XzlOvlbBfGHG86sZxs8nO/LCxsrc9d0i1l13orNfzKhNvmf9U0b4dc08PTkkVnaZrxWb4/1BWaE+etU7mdAf/PUjS0s4/acPiQf1pGXlov1Tj3t0pR5OtnNH4JrktuYuaN5SuuK9eno3W5NXyeNm27eRymzFn7F1EseXNZns+FNlQ+3+2+bCnXN+wpJL9/yZpJPmzm0Hlpp9/29PKm6s4yyqFlMXmjA9tmAHnrwv7lTeip447F1TLKKc3b4O/T8ZMZN7p3ntDGW1A67cvZB3NWuPy/wtBoJ2J6nmeOqfttOvxqEYJe8sYs4c8VzRcsTTM+e1kGB2/sofM2YoznO+wx/Qz0i4AbZ+YjjMYvgcnOoyk7LF+LR+1Mei7ZaV9uDZ6nTftpFSfr+ZfnbRzw5eB8ioBPmXP27/XNbz1NoUNZz318pEbAoX+R4ZNkXcxwYnnrSjq1eMyxuJaMluUN76wimXGjh0YtljFj+ypLyhwa7YRlCDYdfj2gp7zFVk9YC2fI21jRPab4mX6qb6Ie1l9GJP1FAvL9Ee0BYpUdoyd7JtlpXW5NnqdN++k9TpY3cEYM/6KlOYfj35F4F7MXuFWFn1reekDe94hjcU0ZteYN76wDtHGjh0Ytjl8ipI5hxtBoJ44NwRr0k7eEao/gDp63BjCrO+fcqcJp5kjTHhOz8A82tvk57AOjZy78RZa0XkeivvgmaacouUaUyJvusfclOw1pXW4NnqdN++kU51jeRsB2MRdTBHwFFEfnvQa85y2mGGpO2Y6N9MVqjnKkixlK/YtOLG+9sH1lphlLtsKxuLaM2vJWEsfG2cpgYAoOxVPmk97r1j4QOMGD7DH94FEbyZ6COVf4K+ErEqv5aw7fJC3KLdsAGSi3IahtxBovMD2q9sN71wcoI4CPcojZFHMK5Qd3sNiDNXMsBp3Rxo1uYPFKOxdZgzGvNxTIm4HeuC4f5r1bH8Y8d93pvLGz30pfEdUzTp3njs6Fn5qSl9qxntxgNC23Bs/Tpv10inMsb+fg34ccZZn9IpupYnMe1s8zuQ3ilBHAcB8C8qsciVNOLG99ccyxuLaMdtQH5yyDIclGbtIGNsbGgrwNTzrPbTtqYSJoB8YeKFdMDt1LL8FyDhwoOVm8sa2IOVpuTZ6nTfvpEudI3s7C/l2tPLOsbDFGLnIO/ceWTv9gMsfiJa1VByt5eyl/0Z5a3vrCcCy27jxQU0Y764NzlsGAZMaNduZyaS02/zFL1yHHD8QGQaUj0bpi+LBbz42ta95OyZjLrTXO8aMWfgx8PwfuDOvzswwz+EZZ6bLLPjDrUb9sHPLDdFv9Kvj2+lx21MdcvKpVavzZ0rnyvlfFdCm3Bs/Tpv20ivNC0h+zKm/nwhitWO+yTdTMsj4YudhTIAuBiRzfl8TcVJE9k17GX8YpZcegjX7TdZVybKXmieWtR1LHYuvOA7Vk9FhZ1GDM79Oe+c6C880E/psJfGlgD2xcb4byuGYcJ9jJ70PfiHv8t9Z5c4Lvnfg9/GZ1dfi7EQbP25G45XGaBP87tNw7F3bBNxPvLI4f2r+vDC3SaRp0XR4LZl13qZsmoSyd8DsokZ1MpsLSstsFTi5OPphpHpfvZqF5ubV/njZ11CJOhfyELM/i/64yKkKbtlD1PLtvZi8b12ZBl3lJ2Fn1FQ+nlB0zlD9XZbtLdRAPJc8wrLw1Cdn9D9PPy8bB70d0XPH6qvdS1W+nL4Pzh4JDMXcg9MTGduJIDE1CSbwRB7qVbywn425idq36pl+65O3UjLncmjKlURuOLF/uECvPeclI1EZZ/chNVo8pSbJh91/Qi/pczist+CGJRly+iReXm9q+VL3vVNul3Jo+T5v20yIO67HObfniz/KqPp8NVd4FPcCfZeXNSx36xeoo9kwxK4RcvLS86wj3SXc5ztpFrpqOoR2LefaO5W4IeeuLbJTOiiGj1vrszbfynGUwHFarB+FCQ4ORLoRuobpnVSPouirv2Q8ZOj8PwnBhZLJzEPTITbkegrwhVIULWgoO6jCqoxZANelmXD9+qT4YnJHLztG9bQA4AowbkCM9F6b/peWgb+QL4Kfv/wHOwZhlx/FDSveRm8w2FGBwYNwA8EORhmi5PwYAZYxRdvxQrt6KUstmwttQgNMD4wYAAMCo4E6t3g/fRA6cl/9Y4M43AAAAAACTACM3AAAAAJgUMG4AAAAAMClg3AAAAABgUkzWuHGCnTw3JfTVNwCMHCeg3anP+gEAgAsAIzegPxyH/CCknT6Q74t2rU4szg71s9qmvaVTjsMPLQx3ythIA/vMMtRvSgAAAPrm5xk3fihfNLsAL5kmnLrc+P2jiNZLl2Zi69MO+H/kCbi2fS76TKcMlkYUrWnpzuQurhr22V1TxIycnm0pAAAAPYKRG9AfSULxZkWed0Wr9NS7xtQ4uLOXdKpJD6rjafAdm0UQBxTyX2e0fDqBkcgPzRNpLbDlPAAAdADGDeiH7YKu5nNaBFvad9l5Kx21oZisO6/3lU4VLI35fEHBdp9PY7+lxeNGntY7u6V7jN4AAMAoOaNxc+g38bULKfAP3xjpttwipFtzz5YUpd+pUO477Aj/CX0tS8eSjEH9vGmKzqDsc2j6hBi+Gnln59PlrXu5DU96YN5oD+7cv9On+GdGv36Lf7qRThfmQg2HYptP0G5HYdCPT1CVQ37Zb8fkurL9AABAj5zJuOEOoxa/iZlLy3XUs3PojUiL+09oWDrrqOwF0kPeuKETLSmf5Jr+HCR4hryNGVZuckYqpmccmFSOkC+LTxATCne5pqezy8EdhV+Hcj0JGQUA/AjOYtz4IVN8Qu/FtDJ8GryNGPCn2fIp57CZnlQtQupkkWzIS79TYWHr6rtLuqXsWm+lphXIpTuLBdE0b4dc08PTkkVnaZrxWb4/1BWaE+etU7mdAf/PUrysRztqw3CCB1Y7nIQ+/ol/usGn2dK68NL6r8a5v1VGTV4OrjyPVptYjSydEdclNzHzxvIlnZVqtB8AAOjO8MaN7p0ntPEWtDU66PtgrhxEZ3Tbm0NDTM/GAWz7bUDP6j3vFi2IXvLGetOfK5ovWJpmfPYSCw7e2EPnbcQYz/f2YjzcmGB5fJLWJau657OdqPz7l8yDMALNPDCB2wYLWpx91IvJ6KMpoyxfi0eSNvgPllEAwI9heOPm9y+m3hjJG9neYdtX+Xaf9eLQwEg+qNjB/vdR0j/uKW+x1RPWwhnyNlb0aMQZjYZqfAojObLEjdLVGYe7UhmZLSPlZxOQ7zu9+Nr0glVG9/TypvL9Q2UUAPBzGNy4cW6u5T8Wx1YRUsfX65t+lPXnu305sYV+8tZgumLwvDXASR2k8+E0PhM+/REjIqzHf7CxzRjgvk5rPR0lRs7E/+dhH6SjIAzhZ7Ok9ToScrELR7D/U4lc79/VhFlfMgoAACWcyaF4ynzS+yhHHsaL9mMZ5aiNdOKWs1HcsJmPII97Cubcx2YlfGxi5c/CmbnM+B3T8jcAADgDgxs3uvcWrzJHSFswfFGGAnkz0BvK5cO89zd7OmrDHq3udN5gmIYNd5Adg2FjsN9KH5vFXNRN6lhO7l3JaruBKBmZ0aOPDUYsAQCgDcOP3Pz7YP1fxrkVsA3kbXj8OzlqYztq4awYho1YYZZ34h4j+5c3KSM9UD6F5ND9rTRGS7FucJjFS3pZZgYAAOUMb9zs0xVBLq3FhnWmFnTI8QOx+VfpyHr6kp8t6U/fm4J1zdspGXO5tYYZEHKJVPlRC73CDRblP1R5xlZm2CTxirwzjNSVw/OmNuvLiYBPwVPq8NwDprxoPyuH/PBJjWRVwY+n4DKqPubijXg1HABgMpzF52a78KRDpNiwLjIcViOK1sv85l9F9i+kFl2Quzbj9rPTbqe8nZgxl5tYTWTcM9sQ2UiraFBUHZBZSot0mqKPgOBFzQ/KzNIzQ+dyKzpt69VYrH7N7w92LJab9UWRcQ3f1E/lOV714PBsyosu24iV9ydttDdzCXFMsZDRNH88nsxcsnkc6Wo4AMCUOJNDMXeI9MTGdklOTyasp7wRBxaWr7SVcTcxu1Z90y9d8nZqxlxuTRl61GYqyHrkjsRJXgjEYZ9847x+5DOTl5SEGaErb0Ev6nM5r7TwVrm4TECFfPbvswUAAHa+ERAGD07wvfv6+v76Cr992+8IPy44wY7VJ6vT0Lf+joCAgDBUONPIDbh0fsJRCwAAAH4mMG7AWUjPvcI0BQAAgL6BcQMAAACASQHjBgAAAACT4j8WuPMNAAAAAMAkwMgNAAAAACYFjBsAAAAATAoYNwAAAACYFDBuwAFOsJPb5g95iJY+iqB41AAAAJyPk+hDP5T37HpUDChlosaNcUAiCzaZ9EP5204fCggAAACAKXARIzfu3UBjAbDGpwfqFAAAfhyXMS3l3mGqY+zsA5pf8V2LezjRGgAAwEUzeeNGnpzs0gOmnwAAAICLYPojN29vFLM/s9v7BtMKDvlBSDvDb+drF1LgH94h9d0RYe3KL2dLitLvVJB+P5kv0FHfNO1gu6OcXeb4FIQ79ZsMu5K8aYrOuuxzaDzbjmWmXtkUfZnql6iVdMonF8odivOOfSwvrBx0PFYGldmxlNvXbkdhcPjszerUxGHJ8LI18sVDSTqdnodxmBZ7vjCoiFdfrgdDy0BZvWcyl/rHHSu3Y8/TvNxa0LjNDSs7bWhcboPpqgHlWj1T7XRs158gW+CQC5iWeqG/m0S8nP7YtWcBrkwjWi9dmvFjq1NmLi3XUUcH5D29f8r/jvoB/f4lTs2m5I1e0rMlecOP1rR0Z/I3xaxJ3sQ9lsRuoZm56xplI8tlqeLFK48W23Mdenkj85J/CFpHJS/IknLjFewu1/TUk7bxw4iiNS/bXCo6nYi/dNRXeRo+j6iLL0ta7PncJa2fbP5BXeRapieVc8++R9tX0fngo6vWJuHc063Ib0JvuiGk3FH4dVhu5c/Tptx6oEabG0522tCi3AbTVV3kuilM3tQzaarSMcpAw6+PWMfoTn0GJ+MifG72L29MNdZzLOZKRr7AY1p58uRqHjxuIDFmy6ec5Z2ebi3CSqppSjbkpd+psFCOJNtXdc31TaUidW6u5T+f78wk4rBG/LSUiiIx8+bRKrbn7ZBremD3oJjlz3w2lu8PdYUdqUAyw4Y/Tw+GzXah83DlbUQd1YIp1FvKythbpXHtL0jn/lYp2HydXnms7DYxKXtT07ROMxJWtBuWhpe7zvNW8gXOFJt1erTh82QyytJjRqaZL5FW8YEYTeV6OLaUNglb+/T/KJmPn+ngAHnXJbdBW2hTbt2p2+aGkZ02NC+34XTVoHLdSN6qy8Bl9wKnh58tNbHgfLOexjfraX4zi1p854f8c/jN2rvxOftdBCf43rHvvr5230xQs+9VsMYxgx+K31nv9pvJuf0anUaWl8NwmP/qvFmuN4OOy0LoH/5eCE6wM67N7s3TDn17nM6hRrnofFmuSevG9nxH660q1KnTOiG9j5G/Vs9j1GXtuqiUnTrlY8hA13KwhbRsDsrB/w7F9/lnzcqtQVtoU25dQsM2Vxn6kp02oXd561FXVabTsd0boZu8Vcc5SXtCEOEyVksx5IjJEcdi21SQQTrqMvv1W/xtxf5djRQYPavU74BpD8lv+qV6SnoovjJve3p5Uz2II3mLX5usRVJD3iov8WpuGa04A8kH/VP/pvz7kM9vI/1ttoxI+jAE5PtO5chZW1K/BKbYsnl2HlLfHduIXZPn0XKwob9166KzXO8pmKue5zxQI4k9sv1LsqNdaJ/+HfuGE5NVbJu0hTbl1hN129zJZacNvctbj7qqs1w3pJW8VccBp+NijBsm6WJ4t8qxWE8FWZxHjyqZ2mTD8Nc38i7+XeG+Wql/0rtqGIfTVHn2qTNPZd4S+ihqwircpTJsJEfj8jlmS7mxHo26oCdKyqCMffCoXp4M4cOwpPU6EnXMHSL7yp0f7rRfglFsx2nwPMfkwMYwct0F4wVhtE/dLuJX+/YADdpCm3LTdJLrem1uCNnRNHieTvLWoH4OOV5uneS6TZ32KG86DjgZl2PcMPXYzLH4dOiRBKHIfeI6PIljSma3dM9ah24YZUq9NZmxVJ+ExGp6pnKXp3K4PDlq5MFbCR+bWM2Tc7hDZKRHzDrAlOWDchxM4lXOT0CE1HcHWEn94lijEG2Ave5Fu+A0G20cGzXaHGTHQhtdBUDGBRk3mQItcyzW1jRTMDnlUgwdh+YzRf6LfotRmoTe/v6lt2RGt/c+3cvlIZQYXZdjvZ02PazjyKmo+aNyUuQ9pCpDQG/Elw/zA0/QM7Hf0jZY0GIxF/lKnQ772ORROy0nG3pcbGlfeGRdPx2p1+vNM5Rcd2L/wuSf/8PbAHuyY1NSnAZtoU25aU4s10PJjqbB83SStxPrqk5y3aZOe5S33usUHHBRxg0X6GfeCWIvM+tKvH8f8iV+6h2Ntd/NNT08MCEX87Jymfjs9kEtfeVtxWhoad50z9bEsRpEnYmfpY8NVwRp79FdH9+j54egjcw+sSrsrH46o+WgwQjkUHLdCXNq6g+Fx6akOE3aQptyG5pTy04busjbqXXV0HLdSt6q44DTcVnGDSN1LLauxEuNH/b7mu8r4ZhSKTfZ4hsylb7cc4rgQKIN/pGcmZrRbDZjts2LUGoib3rOvdBjNXq2yyeeN/EtwyE/fNJOv4d7gfTEdkGZfdPnHhqnhi9jVxuh5arTz5ZqVlGzTnVPTRh/xnUsndBYRt8ZLaM8KS6Lecdoh6dX9CPqKteiDJVfwgnP2MpGNNP2mdCm0ou1QVtoU24DMZjstKGVvA2kqzrLdVOayFudMgCn5OKMm9SxuIztwpPOp0zBrqPIcDaTm2zlNmQqogWaKwIzbnE3W9Nb3mgUZt4OVkHsKdDTQzxvWb7W6Xz95vFwL5Ae2S7UnhtcmXTVGEWHvig1NNi9ze8rdiyuj9oITZcZC3xzLVWV8ariPKu6dapX/BSuY+m4s5hWPfpNaBnlz6Uco9P0Ip6eZcS7k1wPhVHWgpJVMJo4prhBW2hTboMwoOy0oXm5DaerBpXrRvJWXQYxuxc4LZdn3KSOxaVw51NPbBYlHWlTEkriDW3EzrzqqwNk3E3MrlXflKF7azkFnq2kSkdzcrCeytxbHdw/SWKRr9P7tmxpkW62x3qZva+COgmyTrgjsTxnLIOXG99cq3p5e906VekU64bJzMrr+zBQnpbcsC3OPZOU0dWjzXdG5q+dXA8Fy2M6TMCwtoEcr0weZXvQVLaFNuU2BEPKThtalNtgumpIuWbydiV1gabqeYwy0PDruc55VZ/ByfiPBb7hDQAA/AicYEcRH3bjjqTnt8gAACPkAkduAAAAADBlYNwAAAAAYFLAuAEAAADApIBxAwAAAIBJAYdiAAAAAEwKjNwAAAAAYFLAuAEAAADApIBxAwAAAIBJAeMGdMcP1dbiZujj2IQToI99GGn+wHF+kry1oQ8ZTcvohGeBATBmJmzcGIf9VYYd/YhTBAAA4AzwwzH5AZS5s+CY3tyFPgwnMFowcgO6s13Q1dWVDOnZU6cGPdPL5RzydqmwdsYPx+QHUOaPoGSf3TVF6ByCkXIRxk28UorQGuYnPUkbjAx+mJ2o9zEcSAiAhZHJaHrYpecZetNbkTwPckbLJ3QwwPjAyA0AAAA72wXN5wsKtnvam53A/ZYWj2rUbHZL97BuwMiAcWPATxsWUx0hd+NzxDyznmPeheQfacCOH1C4M+KIeemgJJ5juZ6ns6MwOJzLPpa3oCpztjnzWunkqfqtHc3KwA+Na9au/HK2pMiMy8JB9to6oFrKbVdS1l1l52LRdVNWH5nv3K7z/Ee/ba7XOu0oozoOl8+hZG3/Tp/inxn9+i3+AWA0wLixcsMUaiTmmTUzl9ZRtQKO1ktyZ+bMNJ+XXtLaMmzrh5Hlegb77C7XFHHlqb7Kc0fh12HeluvIrvz5ygvbnLlK5+mME+bty2AASsptVlXWgqay8xPIDIzefZy2rxSLf1y6sxWQc0+3oigTenvpNn/cXt5GWqeGjGq4fEbMwL9TnwG4UGDc2GAGyS1tyFPzy94qdVq0K2CuNJdKAcd8bjqdl+Zx+dy07N4UYNduNrTyvGweO72e/8yU1IPtBeq65CYxi5fG8WglJ79ptnw66LU597fq5WzGYYGlu9rEqud1LpqVwXZh5H8lX4mUZPWUhkXRUaGxAyp7mT8tZbk1KGtBQ9kBW3pVVelaCsj/o+ohfu7BN65tmxugTnuWUZfpiVPjBA+sBDgJffwT/wAwGi7CuHHXqtdpC9aeaEzP84BSXbrfBvRcpoBZ7+lB6ZF4NWcv1r2Ox9nzuelFdq+U7YJdGwS0zU1kq+vVi3tmHetNaPO4YPHUR3bn7eKRNkIbzui2MPn9+5c0bZLNXyMOg6W7DRYsD8WcDUf7MjgxxmhBk7KWNJAdINhm1k1hJMSnu7RtvXZ3rW0vbyOs01oyekKY3nuSPTpWPH0YngD0C0ZubCQfVOyI/Pso0Ra/f6ne04b+NtS/6fx/fv8IFlJ/kuubQ8MreaPD0fk9vbzJ/BWVc5rv2TJSvgUB+b7T79RCB1qVwanRddqsrAVNZOfHsKdgrkYGjJd8b2z/qpdxYeTEv1MjAzH1YNsI2rW5EdZpTRk9DT6FkRo1YnWzOhgqBeD8XIRxU7kU3KasP99rK3Dn5lr+0yAOxw93ev5f9X/qUZLO/l1NMBWU8z4wenHCt2BJ63UknHC5s/M5jZzWZXBijtVpWVkLGsoB4BgG4+29LlM/G7bpZUl0322uEu4PUzSgeJuzzmU2p7aM9g73v1rr6aiNhy0VwDjByM05EFNZUr0m8Sq/fwQPqT9JL6het7cSPjax8hnhcGfnqLeVTw0ZtAzA2Nm/vLFXJUMvK+53Sgry1gfcsMn8Czce9ggD4wXGTUcqe/ElaCffZEOPiy13f8mhe2U2StI5OoK030ofm8VcKHMvHc458HMYhk5lcGKO1enRsgbN2b+QHLxRvkw9T0kNLm96I758mPdkDdSW0d4wDRvuwAzDBowbGDdd+fehepxL+tPUSrC+HB26l56CdqwbZmVxkprLFnRPuUC50jySrxS998U13di0bpE2ZXBqdJ32U9agDubU1B8K605JTUHe2lBTRvvBMGzE6kTTgRmAcQLjpiush6ZXTqx3FBacdfmhc2HBt0UbEO5aXK/h1+reURl8u/PQ2EDMIT980kPF+b1AuFJSG5TlMuVny0iLmMaa9g8w0zjGP5K+liyfzNozkzXpVgaMnFFZlkpLjFGE+mU9ZbgcKb+RE57llU1NuXzHA0ZCm6Ne+gPJ29ioJaN9kBk2YjrvFA7lAJyAizBuKpeCs9DV7WS78PTyYFc566b35ofOucURYr06hOctyvLCr53FtKqa/49jipnyX0dpGhGtU1+CzaNlqFhtUKavl+mkyi9eFRwCtdJkeeMrrHQan7TRnslV7CnIrL1cWeTKuUsZcMx8mvGL6RQdO/UqD1aG5ve53WDZM+it5ZuUNeiEUacC60qgIgPJ2yk5gYzGTE/0gv9H6wp5UKaZnyycy3UPgDIwctML0mmXb+4VJzntzHo7G1o9Fns7/Hq52Vbuan7t0dUHr7TwVrQxHINZRHGw3eF8vkpnE1OSyxeLojb+OlzFKeOY908Sma8X9fko24Xc6CyfZIEuZcDJ8lmZTFu4z4Qq51z+SssadIfVaWqoMJK3F/ZNDQaRtxFiyKiGyydv16/qMwAXyn8sfMt/wZjh59xEvAsVr+gK+0oAAAAApWDkBgAAAACTAsYNAAAAACYFjBsAAAAATAoYNwAAAACYFHAoBgAAAMCkwMgNAAAAACYFjBsAAAAATAoYNwAAAACYFDBuAABng29OKbbwH3r/fn3kgXmkQUP8UOb9hOdttWbMeQNgACZp3GiFWTdAAQAAAACTASM3AAAAAJgUkzRu9sGcrq6ucsFLjwRONuQVfrvCMf4AXBb80EnR/n/ooZkAgEowcgMAAACASQHjxiR1wit1MnQo2Ek/nV0gvXTyDpHs99Dw99mFFPhV3jwO+UFIO3XPenEAmCiO36z9FJ2C2efQaEs71iZzsXX7NkMNh2Jbvo410bI4lY6+LfRBm7wBcAHAuDHZ/iU5e+XSg01DOPd0O+P/JPT2UpzIuqPwK6KlKy6QzFxariNtCOXhhlJE66VLMyNKdRwAzkFm1J/O+Z61n2jdoP0U4IZOtKR89DX9ab0USiHua8lX9EXhnfpcpDTOjoIb9fmAFvqgTd4AuBBg3OTY08ub9M2Z3d4fKHHn/paEGkne6MC2cV1yk5hWXurL49EqVvdaPh30pvyQGULiZmaczDfIFgeAydKw/eS5poenJWtKG/LMtrSK6UNdIdgu9G9X3oZ1UY7BDA52X9nmD/PmsjwfUhWHaMmMFxvN9UGbvAFwOcC4KbB/eZNKb3ZL9zll4tMfqX0ofrY5ICe0eVzQVv+wZ7r0UY0EzejWvBnrcT0I3cPieGYc6QzNleBBHAAmTYP2c8CMZp8rmi9YuzTbEjNmgi7ewsZIbXneCrSK00IftEkHgAsCxk2RfUDPSpkszTFt/45kXyimV5vCtI3mMEWjR4J+/RZ/Bb9/sbszrHFYB/NVZCAfB4CzsadgrkYGTrWysEn7sRBbG2VHKttplrccvccp0Qdt0gHggoBxYyFVJuTeaWdD/04N88av9qWjn+9Wpb9//5T/XN/oaS7n5lr+M1tSlDoCmmGt0jLiADBpGrSfQxL6+Kf+7RHdTo/lzaBTnAb6oE06AFwSMG5sbF9Jmjcu3XHrxhw2/otdMQAYF5/0bnvDAwAuFhg3Vrb0V01auw8B+VWOxCklPUtbD0v3quKVdhy0BmwuCC6FBu1nKI6NGum8GXSK00AftEkHgEsCxk0JmWPxktbKkTh5eylXsAcOyByH7qXXHyXmuPm/D3lvY9oLgIumSfsZirSdHslbji5xmuiDNukAcEHAuClj/0J5nzzb3jYmM1o+hZTtt+WQHz6p5Z2FuNpp2aX1jscxtZNDjh+IjbmGPigZADtD7HPToP0MhdYBVXkr0CpOC33QJh0ALggYN6XsKZAaRxI/U1ClX+OY4hlTTlHqCBjRWm2ulWweD+JuF55criniRJnzIIsXrZf5jbkAmDoN209j+IZ3uo2xEKk9YrhBYX6f27GY6YBHtR+OJW8xy/MhVXGINhtbnDb6oE3eALgcYNxUoR2Lme49utT0lRbeijZq4zFBEtNm5dHcqpn58lpPbDSWGFF4LzWJNyLeAr7L4GJg7eeKveBrt5+B4Ads2tq1d0WLV/W5SGmcOQXv6vMBLfRBm7wBcEF8I5QEP/xmvSEWwm/Wm7Ne4wQ7eU3oW39HQEBASAP0BQLCMAEjNxUc3dsGAAAa8PuXmmo7h4M0ABcEjJsSHD8Uc+Sck+x+CgCYJg4/nVye5p25BjvkBzulU87kIA3ABQHjpoAfSse8KLVskg1h3z4AQBOuZ/I072zH4SjbUqIPB2kAQCUwbirgjnweNtIDADRhH9CjcvQ1fYOTMThIA3Ah/McCd74BAAAAAJgEGLkBAAAAwKSAcQMAAACASQHjBgAAAACTYrLGjRPs5CoFHNAEfgr6iADzCAAAAABNwcgN6A+H7+UR0i49ZJGFXWAeAliX7KBGq23aWzoVWNL4+trRLgyMQwoBAACMkZ9n3PihfNGc7HTiiXLqcuP3j/heHi7Nimf8NcX/I081tu0x1Gc6pfgUWtOY0cxd0jrCie0AADBmMHID+iNJKN6syPOuaNX6UGKHgge5gWL8XLLHUC/pHIHvSaLSuLpSge9dIjYumZG7PsHUET8IUaS1wHEfAADQARg3oB+2C7qaz2kRbGnfZY+ydNSGYrKeetFXOpVsaTFfUFBMY7+lYL5SJ8W7dIfRGwAAGCVnNG4sPg3qPJYi6ZEIIqTHIsyWxtbmMpRPFTgUhMrBmAeWTrXfRP28aYrOoOJ8mSz+jmUujZ13dj5d3rqX2/Ckh5Umm78jHb34Rx9q29nrm8qKqkc6XZgLNUaFHF/IjZQ5FXY7CoNMzrpQ5ZBf9tsxua5sPwAA0CNnMm64w6jFp0Gdx9Kvc+iNSGvpGgmxdNZR2Qukh7xxQydaUj7JNf05SPAMeRszrNzkjFRMz6Pdov43qYOd6fP9THkU8rUWcmOKARcKd7mmp7PLwR2FX4dyPQkZBQD8CM5i3PghU3xC78W0MnwaPOnQQLPlE5k6cLvIrrlKnSySDXnpdyosbF19d0m3lF3rrTbqvBf7tELTvB1yTQ9PSxadpWnGZ/n+UFdoTpy3TuV2Bvw/S/GyHu2oDR8t2a1Z7TD6OlCVT7OldeGl9V+Nc3+rjJq8HFx5Hq02MX2K386I65KbmHlj+Yrrth8AAOjO8MaN7p0ntPEWtDU6v/tgrhxEZ3R735cGjOnZOPxyvw3oWb3n3aIF0UveWG/6c0XzBUvTjM9eYsHBy3DovI0Y4/neXoyHOyt8pExNq/DAR0uYVZHEq7MeqPpbDR0JI9DMBBO4bbCgxdlHvZiMPpoyyvK1eNTO2D9WRgEAP4bhjZvfv5h6YyRvZHuHbV/l233267f425nkg/6pf1P+pU4TRXrKW2z1hLVwhryNFT0aET/T+A9NvqHfZ3w/pzIyW0bKzyYg33eYKTYSrDK6p5c3le8fKqMAgJ/D4MaNc3Mt/7E4toqQOr5e3/SjrD/fa/ew+8lbQh9Fi6WMwfPWAO7XYUnnND4TPv0R822sx9/LXE9f7CmYF6Z94oTSvW7ONb2yD9JREIbws2H5WUdCLvgmg2fKVkaJXO/f1YRZXzIKAAAlnMmheMp80rn8TH8qTvAg/VjGPmrDp30W2RTg8tBDfCCU0eWthI9NrPxZONzwisa0/A0AAM7A4MaN7r3Fq6xHbAtn8GlA3gz0hnL5MO/d+khHbdij1Z3OOzPpFODZRyD2W+ljwwwuXjepYzm5d8eXkp+SknLRo48NRiwBAKANw4/c/PsgoYLPrYBtIG/D49/1u/poANK9eMbG/uVNykgPlE8hOXR/K43RUma3dOgznMVLas/bAgBAO4Y3bvbpiiCX1mLDOlMLOuT4gdj8q3RkPX3Jz5b0p+9Nwbrm7ZSMudxa4xw/aqFXjNVPFWdsOXyTRHFAZsFJlx+myco4dW9K3l7OMALBn0Ft1pcTAZ+CJ7mUvhdMedHORfz5n9R2BFXMaPnEZVR9zMUb02o4AMBUOYvPzXbhSYdIsWFdZDisRhStl/nNv4rsX0gtuiB3bcbtZ6fdTnk7MWMuNz69FBr3zDZENtIqGhRVB2SW0iKdxlwrp2HppKvvyw/TVGXMl4N3nqIrOm1HqXHC6tf8/mDHYrlZXxQZ16hl6px41cPZVKa86LLlz/9JG+3NXEIcUyxkNM2fUW6bxx+wGg4A8NM5k0Mxd4j0xMZ2SU5PJuylsaHNyqvYWE7G3cTsWvVNv3TJ26kZc7k1ZehRm/rw1Uh8Q8WYFXK+rNhnfqAmK+f52YRA1iN3JE7yQiDyxjfO6ydrmbykJMwIXXkLelGfy3mlBT9k1IjLBFSWGywbAMBAfCMgDB6c4Hv39fX99RV++7bfEX5ccIIdq09Wp6Fv/R0BAQFhqHCmkRtw6Yz+qAUAAAA/Fhg34Cyk515hmgIAAEDfwLgBAAAAwKSAcQMAAACASfEfC9z5BgAAAABgEmDkBgAAAACTAsYNAAAAACYFjBsAAAAATAoYN+AAJ9jJbfOHPERLH0VQPGoAgB8M5Pp0+KE63sMMKOdTcJJ3Qlp/nY/LsTNR48Y4IJEFW334ofxtpw8FBAAAAMAUuIiRG/duIFv+xJYoOAOoUzB2LlVGtwuxEagI3mYkZ+aBsXAZ01LuHYYqx84+oLlQVD2caA3AWIBcA3AWJm/cyJOTXXrA9BMAAABwEUx/5ObtjWL2Z3Z732DI1iE/CGln+O187UIK/MM7pL47Iqxd+eVsSVH6nQrS7yfzBTrql6UdEXeUs8scn4Jwp36TYVeSN03RqZF9Do1n27HM1Cuboi9T/RK10tAhMO/UxvLCykHHY2VQmR1LuX3tdhQGh8/erE5NHJYML1sjXzyUpNPpeRiHabHnC4OKePXlejC0DJTVeyZzqX/csXI79jzNy60hA8h1exnltJCDBjqkvVw3az/noLHsDKavB2zb6plqp2O7/gTZKnIB01Iv9HeTiIb/x9rQi3BlGtF66dKMH1udMnNpuY46OiDv6f1T/nfUD+j3L3FqNiVv9JKeLcmFPlrT0p3J3xSzJnkT91gSu4Vm5q5rlI0sl6WKF688WmzPdejljcxL/iFoHZW8QErKjVewu1zTU08tzQ8jita8bHOp6HQirtjVV3kaPo+oiy9LWuz53CWtn2y+F13kWqYnFVPPfh3bV9H54KOr1ibh3NOtyG9Cb7ohpNxR+HVYbuXP06bchqSpHLShixwoauuQZs/Tvv0MQQvZGUxf91CntWFtTj2Tpiodoww0/PqIGd536vOJuAifm/3Lm3A2q+NYzBuYfIHHtPKUsxoLHjeQGLPlU87qTE+3FmEl1TQlG/LS71RYqAn37au65vqmUpE6N9fyn893ZhJxmAA/LWUjScy8ebSK7Xk75Joe2D0oZvkzn43l+0NdYUc2nsyw4c/Tg2HT1iGQKZNbysrYW6Vx7S9I5/5WKZd8nV55rOw2MSl7U9O0TjMSVrQbloaXu87zVvIFzhq1dXq04fNkMsrSY0ammS+RVvGBGE3leji2lDYJW/v0/yiZj5/p4AB51yW3QVtoU26tGECu28podzlooEMaynXr9jMAzWVnOH09aNtu1Oaqy8Bl9zo1/GypiQXnm1nZ36yn+c2sSfGdH/LP4TdrU8bn7HcRnOB7x777+tp9s0rKvlfBGscMfih+Z73bb1bH9mt0GlleDsNh/qvzZrneDDouC6F/+HshOMHOuDa7N0879O1xOoca5aLzZbkmrRvb8x2tt6pQp07rhPQ+Rv5aPY9Rl7XrolJ26pSPIQNdy8EW0rI5KAf/OxTf5581K7cGbaFNufURTijXOtSV0S5yYJRfZV5Y6Pw8tmBpP7lQo5xbhzayU1nWPerrynTqtO16oVubq45zEp3CwmWslmLIEZMjlr9tKsggHXWZ/fot/rZi/65GCozeSzpHz1qO5Df9Ur0EPRRfmbc9vbwp6/lI3uLXJms21LCyyku8mltGK85A8kH/1L8p/z7k89tIf5stIzV/H5DvO5UjZ21J5+RZo87mmHlI/SJsI3ZNnkfLwYb+1q2LznK9p2Cuel3zQI0k9sj2L8lOZqF9+nfsG05MVrFt0hbalNvQNJTrxvSk32rrkBbP06r9nJre21yP+rqnOq1NqzZXHedUXIxxw2pZDG1WORbrqSCLY15/DSwbhr++kXfx7wr31Ur9k96VUBxOU+XZp848lXlL6KOobapwl8qwkRyNy+dXLeXGrHl1QU+UlEEZ++BRvTwZYv5+Set1JOqYOwP2lTs/3Ok5eaPYjtPgeY7JgY1h5LoLhnI02qduF/GrfRl1g7bQptw0I5XrpvQjBw10SMPnad1+2tCgTju1uQYyesjxsu5Up23kusHz1C6DE3E5xg1Tj80ci0+HHkkQitwnrsOTOKZkdkv3TDK0UJQp9dZkxlJ9EhKr6Zm6WZ7d4bItauTBWwkfm1jNEXO4M2CkR8w6wBTFg3KaS+JVbo5chNQvAlhJ/eJYoxBtgL3qRLvgNBttBKeljQ6pAdqPhROV9YVwQcZNpkDLHIu1JckaV65hFUPHoflMkf+i32KUJqG3v3/pLZnR7b1P93J5CCWG2X7M0m/TuziOnIqaPypHQN47qDIE9IZl+TA/8AQ9E/stbYMFLRZzka/U4a6PTR6103KyocfFlvaFR9b105F6Pb48Q8l1J/YvTP75P7wNsCc7NiXFadAW2pSbZuxyXZMxy8FQ7UfToE47tbkT6+tOddpGrntsc73XaYGLMm54ZT7zDgB7mVlXof37kC/xU+9orP1urunhgVWwmJOUy8Rntw9q6SuXE0PI0rzpnq2JYzWIOhM/Sx8b3gjSnpO7Pr5Hzw9BG5l9YlVWWf10RstBgxHIoeS6E+bU1B8Kj01JcZq0hTblNjV+ghy0bT+GTlWz/f3Rpc2dWl8PXaet2lx1nFNxWcYNI3Ustq5CS40f9vua76ngmDUiN5jimxGVvtxzjaCqhf0jOTM1o9lsxmybF9GgRd70fHOhx2r0bJdPPG/iW4ZDfviknX4P9wLpie2CMvvmnPtNNIUvY1ebgOWq08+WKVZRs051L0UYf8Z1LJ3QWEbfGS2jPCkui3nHaIenV/Qj6irXogzVnPwJzy/KRjTT9pnQptKDs0FbaFNuP4W6eqezHJyO7u0n06lLZoH0Wo+t2txA+nrwOm3S5uqUwem4OOMmdSwuY7vwpPMpU7DrKDIcreQGU7nNiIroyuSNwIxb3CnU9BQ3BMLM28FKgz0FenqI5y3L1zqdq948Hu4F0iPbhdpvgjekrq2l6MwWpYYGu7f5fcXOrvVRm4DpMmOBbyylqjJeVZz7U7dO9YqfwnUsHXcW06pHnwEto/y5lGN0ml7E07OM9naS66EwylpQsgJEE8cUN2gLbcqtMYPKtaK23hmxHHRuP0w/ZhZIrm77eLE3l53h9PWgddqozVWXQczudUouz7hJHYtL4c6nntgoSTrSpiSUxBvaiJ151VcHyLibmF2rvilD91RyCjxbSZWO5uRgVvrcWx3cP0lika/T+wBsaZFuSsYUSO+rRU6CrBPuSCzPGcvg5cY3lqpe3l63TlU6xbphMrPy+j40kafFN/PaUJx7Jimjq0ebz4TMXzu5HgqWx/QFxbC2gRyvTB5le9BUtoU25fYTkHVbR++MVw5kvjq1n+1C1G2hmfdEC9kZTF8PWaeszV1JWdNUPY9RBhp+Pde7r+rzifiPBb7hDQAA/AicYEcRH3bjTpTnt8gAACPkAkduAAAAADBlYNwAAAAAYFLAuAEAAADApIBxAwAAAIBJAYdiAAAAAEwKjNwAAAAAYFLAuAEAAADApIBxAwAAAIBJAeMGdMcP1bbaZuhxe/k+0dvjjzR/4Dg/Sd7a0IeMpmV0wrPAABgzEzZujMP+KsOOfsQpAgAAcA4ch/wgpF1On+5oFwbGYYgAjAuM3IDubBd0dXUlQ3r21KlBz/RyOYe8XSw+hVFE66VLs9z5izOauUtaR+c5RRyAY1yEcROvlCK0hvlJT9IGI4Mf5Cbqve/DLAHoibHJKD/ocLMizzP0Jj8MUViV/JRsTPGC8YGRGwAAACVsaTFfUBBsaW92AvdbCuYrkme4u3QH6waMDBg3Bvy0YTHVIcZZHQpC9VlMf7DeyZH5D8cPKNwZcSrnpR3L9TydHYWBfzDVcixvQVXmHF9cL50U0zh10slT9Vs7mpWBHxrXrF355WxJkRmXhYPstXVAtZTbrqSsu8rOxaLrpqw+Mt+5XWfnuH7bXK912lFGdRwun4PJ2j/6UHOC1zcQcDAuYNxYuWEKNaKla0wyz1xaR9UKOFovyc1NTKt56adDvxA/jCzXM9hnd7mmiCtP9VWeOwq/DvO2XEd25c9XXkRrcX1+ylym83RGb+r2ZTAAJeU2qyprQVPZ+QlkBkbvPk7b1+rev3NPt6IoE3p76TZ/3F7eRlqnhoxquHxGzMC/U59Pym/6pZL+fMfcPhgXMG5sMIPkljbkqfllb5U6LdoVMFeaS6WA45Wn44m43oriT3FZAXbtZkMrz8vmsdPr+c9MST3YXqCuS24Ss3hpHI9WsczdbPl00Gtz7m/Vy9mMwwJLd7WJyZq1wWhWBtuFkf+VfCVSktVTGhZFR4XGDqjsZf60lOXWoKwFDWUHbOlVVaVrKSD/j6qH+LkH37i2bW6AOu1ZRl2mJ04KHzHarVkJMFgb/AsHNjAyLsK4cdeq12kL1p5oTM/zgFJdut8G9FymgFnv6UHpkXg1Zy/WvY7H2e+3tFhk90rZLti1QUDb3ES2ul69uGe/fou/eRLaPC5YPPWR3Xm7eNTOfbf3+af5rbpWyeavEYfB0t0GC5aHYs6Go30ZnBhjtKBJWUsayA4QbDPrpjAS4tNd2rZeu78928vbCOu0loz2iTF6xwMfMWLpJ/GKPKNsABgLGLmxkXzQP/Vvyr90crnI71+q99S895LO/+d8YXhI/Umubw4Nr+SNDkfn9/TyJvNXVM5pvmfLSPkWBOT7jsWgOw+tyuDU6DptVtaCJrLzY9hTMFcjA6d4kW3/qpdxYeTEv5MjA8y46MG2EbRrcyOs05oyenpu6PdYlAkABhdh3FQuBbcp68/32grcubmW/zSIw/HDnZ7/F0qqLiXp7N/VBFNBOe8DoxcnfAuWtF5HwgmXOzufUy+1LoMTc6xOy8pa0FAOAMcwGG/vdZn62bBNL0ui+25zlehdhvOhu1O0pLaM9oZh4PLAp7XjhNK9bnp6LAB6AyM350BMZUn1KoZ1TV8YHlJ/kl5QSslbCR+bWPmMcLhiinpb+dSQQcsAjJ39y5v0M5ndkpzt63dKCvLWM3xaezFnBg7/MKPlH0y5gnEB46Yjlb34ErSTb7Khx0Vh/wiG7pXZKEnn6AjSfit9bJhC4srcS4dzDvwchqFTGZyYY3V6tKxBc/YvJAdvlC9Tz1NSg8ub3ogvH+Y9+bjVltETo/2lGug/AIYAxk1X/n2oHueSGnderC9Hh+6lp6Ad3bM1yeIkH0XvADu6p1ygXGkeyVfK/l2twLqmWltftCmDU6PrtJ+yBnUwp6b+UFh3SmoK8taGmjJ6avTUIQAjA8ZNV1gPTa+cWO8oLDjrOo5PYcG3RRsQ7lpcr+HX8v00KvXSjJZPobGBmEN++KSXouf3AuErHNQGZblM+dky0iKmsaYn0s00jpFu7CWHqs1kTbqVASNnVJal0hJjFKF+WU+ZE+5zY5BNTbl8xwNGQpujXvoDydvYqCWj3XH4gZliI9LCIgR+mGa4o9QPO3l7wSgmGBUXYdxULgVnoavbyXbh6eXBrnLWTe8dRWtyiyPEenUIz1uU5YVfO4tpVTX/H8cUM+W/jtI0IqZgpCZLNo+WvUDUBmX6eplOqvziVeH8Gq00Wd74CiudxidttGdyFXsKMmsvVxa5cu5SBhwzn2b8YjpFx84oNepYGZrf53aDZc/wqPYaaVTWoBNGnQqsK4GKDCRvp+QEMhozPdEP18ppOK/XvvhhmoYPU1/TbQD0BUZuekE67fLNveIkp51Zw9/Q6rG4IotfL1cb5K7m13rHDst7pYW3oo3hGMwi0mblWRSMSmcTU5LLF4uiNv462PBOxTHvnyQyXy/q81G2C7nRWT7JAl3KgJPlszKZtnCfCVXOufyVljXoDqvT1FBh1B4NGETeRoghoxoun7xdv6rPHeGrLVO9li9e9jltC4dKBICz8x8L3/JfMGb4OTcRH25hvaQrKBMAAACgFIzcAAAAAGBSwLgBAAAAwKSAcQMAAACASQHjBgAAAACTAg7FAAAAAJgUGLkBAAAAwKSAcQMAAACASQHjBgAAAACTAsYNAOBs8M0pxXb+Xc9AaYo+8sA80qAhfijzfsLztloz5rwBMACTNG60wqwboAAAAACAyYCRGwAAAABMikkaN/tgTldXV7ngpUcCJxvyCr9dzYsHWwIAJg0/dFK0/x96aCYAoBKM3AAAAABgUsC4MUmd8EqdDB0KdtJPZxdIL528QyT7PTT8fXYhBX6VN49DfhDSTt2zXhwAJorjN2s/Radg9jk02tKOtclcbN2+zVDDodiWr2NNtCxOpaNvC33QJm8AXAAwbky2f0nOXrn0YNMQzj3dzvg/Cb29FCey7ij8imjpigskM5eW60gbQnm4oRTReunSzIhSHQeAc5AZ9adzvmftJ1o3aD8FuKETLSkffU1/Wi+FUoj7WvIVfVF4pz4XKY2zo+BGfT6ghT5okzcALgQYNzn29PImfXNmt/cHSty5vyWhRpI3OrBtXJfcJKaVl/ryeLSK1b2WTwe9KT9khpC4mRkn8w2yxQFgsjRsP3mu6eFpyZrShjyzLa1i+lBXCLYL/duVt2FdlGMwg4PdV7b5w7y5LM+HVMUhWjLjxUZzfdAmbwBcDjBuCuxf3qTSm93SfU6Z+PRHah+Kn20OyAltHhe01T/smS59VCNBM7o1b8Z6XA9C97A4nhlHOkNzJXgQB4BJ06D9HDCj2eeK5gvWLs22xIyZoIu3sDFSW563Aq3itNAHbdIB4IKAcVNkH9CzUiZLc0zbvyPZF4rp1aYwbaM5TNHokaBfv8Vfwe9f7O4MaxzWwXwVGcjHAeBs7CmYq5GBU60sbNJ+LMTWRtmRynaa5S1H73FK9EGbdAC4IGDcWEiVCbl32tnQv1PDvPGrfeno57tV6e/fP+U/1zd6msu5uZb/zJYUpY6AZlirtIw4AEyaBu3nkIQ+/ql/e0S302N5M+gUp4E+aJMOAJcEjBsb21eS5o1Ld9y6MYeN/2JXDADGxSe9297wAICLBcaNlS39VZPW7kNAfpUjcUpJz9LWw9K9qnilHQetAZsLgkuhQfsZimOjRjpvBp3iNNAHbdIB4JKAcVNC5li8pLVyJE7eXsoV7IEDMsehe+n1R4k5bv7vQ97bmPYC4KJp0n6GIm2nR/KWo0ucJvqgTToAXBAwbsrYv1DeJ8+2t43JjJZPIWX7bTnkh09qeWchrnZadmm943FM7eSQ4wdiY66hD0oGwM4Q+9w0aD9DoXVAVd4KtIrTQh+0SQeACwLGTSl7CqTGkcTPFFTp1zimeMaUU5Q6Aka0VptrJZvHg7jbhSeXa4o4UeY8yOJF62V+Yy4Apk7D9tMYvuGdbmMsRGqPGG5QmN/ndixmOuBR7YdjyVvM8nxIVRyizcYWp40+aJM3AC4HGDdVaMdipnuPLjV9pYW3oo3aeEyQxLRZeTS3ama+vNYTG40lRhTeS03ijYi3gO8yuBhY+7liL/ja7Wcg+AGbtnbtXdHiVX0uUhpnTsG7+nxAC33QJm8AXBDfCCXBD79Zb4iF8Jv15qzXOMFOXhP61t8REBAQ0gB9gYAwTMDITQVH97YBAIAG/P6lptrO4SANwAUB46YExw/FHDnnJLufAgCmicNPJ5eneWeuwQ75wU7plDM5SANwQcC4KeCH0jEvSi2bZEPYtw8A0ITrmTzNO9txOMq2lOjDQRoAUAmMmwq4I5+HjfQAAE3YB/SoHH1N3+BkDA7SAFwI/7HAnW8AAAAAACYBRm4AAAAAMClg3AAAAABgUsC4AQAAAMCkmKxx4wQ7uUoBBzSBn4I+IsA8AgAAAEBTMHID+sPhe3mEtEsPWWRhF5iHANYlO6jRapv2lk4z0m0Cvr52NEByAAAAWvLzjBs/lC+Yk51OPFFOXW78/hHfy8OlWfGMv6b4f+SpxrY9hvpMpwnGpo4AAADGDUZuQH8kCcWbFXneFa1aH0rsUPAgrYj4uWSPoV7SaYJPIbds+MnV6puTwA9CvLqiq6sFjvsAAIAOwLgB/bBd0NV8TotgS/sue5SlozbMjLCeetFXOg3wwzW5LD8rHLUMAAA/gjMaN4d+E1/qPJYima8DC+ncwGxpbG0uQ7nvsENBqByMeWDpWJIxqJ83TdEZVJwvk8XfscylsfPOzqfLW/dyG570sNJk83ccoxdqOipenWg0JZ0uzIUaDsWOL+RGypwKux2FQSZnXahyyC/77ZhcV7YfAADokTMZN9xh1OI3oc5j6dc59EaktXSNhFg666jsBdJD3rihEy0pn+Sa/hwkeIa8jRlWbnJGKqbnUWxRr6ajxna+mJCvtZAbUwy4ULjLNT2dXQ7uKPw6lOtJyCgA4EdwFuPGD5niE3ovppXHfQxk8DbyJJbZ8im3GmW7yK65Sp0s2AvHS79TYWF7AblLuqXsWm+1Uee9uHRnsSCa5u2Qa3p4WrLoLE0zPsv3h7pCc+K8dSq3M+D/WYqX9VhGbeR0VEKbxxOeL8an2dK68NL6r8a5v1VGTV4OrjyPVpuYPsVvZ8R1yU3MvLF8xXXbDwAAdGd440b3ztlLw1vQ1nhr7IO5chCd0e19Xxowpmfj8Mv9NqBn9Z53ixZEL3ljvenPFc0XLE0zPnuJBQdv7KHzNmKM53t7MR7uXKjpqDGe4Pz7lzRthBFo5o0J3DZY0OLsGeYGoSmjLF+LR5I2+A+WUQDAj2F44+b3L6beGMkb2d5h21f5dp/9+i3+dib5oH/q35R/HyX9457yFls9YS2cIW9jRY9GxM8jMCYctWJrLNNjeVIZmS0j5WcTkO87LNcjwSqje3p5U/n+oTIKAPg5DG7cODfX8h+LY6sIqePr9U0/yvrzvfaUQj95S+ijaLGUMXjeGsD9OizpnMZnwqc/cmMb2ozAucUJnsT038mciDuyD9JREIbws1nSeh0JudiFI9j/qUSu9+9qwqwvGQUAgBLO5FA8ZT7pfXyd/VHjBA8kTLORjNrc34oxJHLXReOO++BwZrSM5HfnWWm2p2DOfWxWwscmVv4snJnLjN8xLX8DAIAzMLhxo3tv8SpzhLQFwxdlKJA3A72hXD7Me7c+0lEb9mh1p/OAZL+VPjaLuaib1LGc3LuS1XYDUTIyo0cfG4xYAgBAG4Yfufn3QUIFn1sB20Dehse/k6Mho1lurUZFCkadDCuSnk3cqVt+N5aVZpz9y5uUkR4on0LKRrZKmd3Soc9wFi+pPW8LAADtGN642acrglxaiw3rTC3okOMHYvOv0pH19CU/W9KfvjcF65q3UzLmcmtN6rjLZ6SGGA3j+wSpKaYfezYZfwa1WV9OBHwKnuRS+l4w5UX7WTnkh9IfqZoZLZ+4jKqPuXgjWQ0HAJg0Z/G52S486RApNqyLDJ+GiKL1Mr/5V5H9C6lFF+Suzbj9+D90ytuJGXO58eml0Lhn6t8sVvSk3xcNiqoDMktpkc5YKTptR6lxwurX/P5gx2K5WV+k/H5k3LU2OnpxhDblRZdtxMr7kzbam7kEfgaXkNE0fzyezNwYl9YDAKbHmRyK+dC/Jza2S3J6MqEk3tBm5VUM98u4m5hdq77ply55OzVjLremDD1qMxVkPXJH4iQvBOyz3DivH/nM5CUlYUboylvQi/pczistvFUuLhNQIZ/9+2wBAICdbwSEwYMTfO++vr6/vsJv3/Y7wo8LTrBj9cnqNPStvyMgICAMFc40cgMunbEdtQAAAGA6wLgBZyE99wrTFAAAAPoGxg0AAAAAJgWMGwAAAABMiv9Y4M43AAAAAACTACM3AAAAAJgUMG4AAAAAMClg3AAAAABgUsC4AQc4wU5umz/kIVr6KILiUQMAADB9TqJ3/VDe88eepdeeiRo3xgGJLNhkxQ/lbzt9KCAAAAArjkN+ENLO0KvQnWDMXMTIjXs30FjABVvJkwV1Ci4d3gaiiNZLl2bqcFYAxs5lTEu5d5jqGDv7gOZXfNfiHk60BgD0S5JQvFmR513RKlbfATBiJm/cyJOTXXrAECoAADRnu6Cr+ZwWwZb2OC0F/BCmP3Lz9ka8ozG7vW8wrXA4v/y1CynwD++Q+u6IsHbll7MlRel3Kki/n8wX6KjPmHaw3VHOLnN8CsKd+k2GXUneNEVnXfY5NOfOWWbqlU3Rl6l+iVpJp3xyodyhOO9wx/LCykHHY2VQmR1LuX3tdhQGh8/erE5NHJYML1sjXzyUpNPpeRiHabHnC4OKePXlejC0DJTVeyZzqY/HsXI79jzNy60dddOpciQ9iZPpGOXAoHH9DKYTByw39Uy107Fdf4Js/SQuYFrqhf5uEvFy+lNLP3Blaplfnrm0XEcdnej29P4p/zvqB/T7lzg1m5I3ekl7S7xBRmtaujP5m2LWJG/iHktit9DM3HWNspHlslTx4pVHi+25unE3Mi/5h6B1VPKCLCk3XsHuck1PPWkBP4woWvOyzaWi04mYwrEXc8PnEXXxZUmLPZ+7pPWTzT+oi1zL9KTS7Nn3aPsqOh98dNXaJJx7uhX5TehNN4SUOwq/Dsut/HnalFsbhkqnDV3k4NS0KLfBdOKQ5cbkWj2Tpiodoww0/PqIdcDu1OcL5CJ8bvYvb0w11nMs5i8o+QKPaeXJk6t58LiBxJgtn3IWcXq6tQjpZHSyIS/9ToWFciTZvqprrm8qFZxzcy3/+XxnJhGHNa6npWzAiZk3j1axPW+HXNMDuwfFLH/ms7F8f6gr7MiGnRk2/Hl6MGz4cLfKw5W3EXVUC6bobikrY2+VxrW/IJ37W6X48nV65bGy28Sk7E1N0zrN4H4JG5aGl7vO81byBc4UjnV6tOHzZDLK0mNGppkvkVbxgRhN5Xo4tpQ2CVv79P8omY+f6eAAedclt0FbaFNubRgqnTaMVw7alNtwOnHQcmsk19Vl4LJ7XTL8bKmJBeeb9QC+WU/zm1m64js/5J/Db6Y+jc/Z7yI4wfeOfff1tftmApR9r4I1jhn8UPzOerffTP7s1+g0srwchsP8V+fNcr0ZdFwWQv/w90Jwgp1xbXZvnnbo2+N0DjXKRefLck1aN7bnO1pvVaFOndYJ6X2M/LV6HqMua9dFpezUKR9DBrqWgy2kZXNQDv53KL7PP2tWbg3aQptyaxNapJNvb/V/axw6y4EMndpTWehdrnvUiT2V27HQTa6r45yk3Y48XMZqKYYcMTniWGybCjJIR11mv36Lv63Yv6uRAqNXnvodsFYt+U2/VA9GD8VX5m1PL2/Ksj+St/i1yVokNV2i8hKv5pbRijOQfNA/9W/Kvw/5/DbS32bLiKT/S0C+71SOnLUl9RdgCieb/+Yh9d2xjdg1eR4tBxv6W7cuOsv1noK56hHOAzWS2CPbvyQ7wIX26d+xbzgxWcW2SVtoU25tGCqdNnSWgxPSu1z3qBOHLrdWcl0d5xK5GOOGSaCYGqhyLNZTQRbn0aMvqNpkw/DXN/Iu/l3hvlqpf9K7EtjDaao8+9SZpzJvCX0U36JVuEtl2EiOxuVzv5ZyYz0NdUFPlJRBGfvgUb08GTPu/7Kk9ToSdcwdFfvKnR/utL+AUWzHafA8x+TAxjBy3QVDcRvtU7eL+NW+PUCDttCm3DQN5LpTOm1ok7eh5ODE5XYsTl86sVO5tdGJPcq1jnOBXI5xw9RjM8fi06FHEoQi94nr8CSOKZnd0j2TWi2wZUq9NZmxVJ+Eb3HBmNHyrI6QXVAjD95K+NjEav6awx0VIz1i1gGmxB6UQ18Sy/1A0nl5EbA5SCWpXxxrFKINMNNGtAtOs9FGAJrQRieCn8AFGTeZAi1zLNZWLns55V5MxdBxaD5T5L/otxilSejt7196S2Z0e+/TvVweQonRpTjWC2nT8zmOnIqaPyoHV95zqTIE9EZ8+TA/8AQ9E/stbYMFLRZzka/UGbCPTR6103KyocfF4X4gun46Uq83mmcoue7E/oXJP/+HtwH2ZMempDgN2kKbctM0kOtO6bShTd6GkoMTl9uxOH3pxE7l1kYn9ijXfemdn8hFGTdc0J55B5q9zKwr5P59yJf4qXc01n431/TwwIRPzJfKZeKz2we19JXLsNEA0rzpnq2JYzWIOhM/Sx8b3kDTkQd3fXyPnh+CNjL7xKpIs/rpjJaDBiOQQ8l1J8ypqT8UHpuS4jRpC23KrQ0t0il/QfUoN5wxy0EXuT61Thy63FrJdXWcS+SyjBtG6lhsXSGXGj/s9zXfk8QxpUVu0MY3Sip9ueca6IGkGfwjOTM1o9lsxmybF/FCFHnT/hqFHqvRs10+8byJbxkO+eGTdvo93AukJ7YLyuybsv1Xxghfxq420ctVp58toayiZp3qF5Qw/ozrWDqhsYy+M1pGeVJcFvOO0Q5Pr+hH1FWuRRkqf4ETnrGVjWim7TOhTaV3aYO20Kbc2tAmHVPGtC+G+Sw90VkOTkgruR5IJw5ebk3kuk4ZXCYXZ9ykjsVlbBeedD5lCnYdRYYTmNygLbdRUhEtaLyBmnGLu9maXuyGsJp5O1hBs6dATw/xvGX5Wqe+HpvHw71AemS7WKn8sfS7tuSio12UGhrs3ub3FTsW10dtoqfLjAW+6ZWqynhVcZ5V3TrVK34K17F03FlMqx59brSM8udSjtFpehFPzzIS3Umuh8Ioa0HJ6hRNHFPcoC20Kbc2NE7HlDG+ok9cy5/lkzapUPVEOzlghoW+7ovlS34rVh+m3/dg9Davn+F04qDtp5FcV5dBzO51qVyecZM6FpfCnU89sYmTdKRNSSiJN7QRO/Oqrw6QcTcxu1Z9U4bu6ecUeLaSKh3NycF6EHNvdXD/JIlFvk7v27KlRbrZnrvufxXUSZB1wh2J5TljGbzc+KZX1cvb69apSqdYN0xmVl7fh4HytPhGYxuKc88kZXT1aPOZkPlrJ9dDwfKYdt8Z1jaQ45XJo2wPmsq20Kbc2tA0HVk35nMkiZSbF/W5P8YsBy3qZzCdOGS5Mbm+yssDS6T8eYwy0PDruW57VZ8vkP9Y4BveAADAj8AJdhTxYTfu4Hl+iwwAMEIucOQGAAAAAFMGxg0AAAAAJgWMGwAAAABMChg3AAAAAJgUcCgGAAAAwKTAyA0AAAAAJgWMGwAAAABMChg3AAAAAJgUMG5Ad/xQbflthj6OTTgB+tiHkeYPHOcnyVsb+pDRtIxOeBYYAGNmwsaNcdhfZdjRjzhFAAAARoIfQn+CcYORG9Cd7YKurq5kSM+eOjXomV4u55A3kMHaXnp4JgBj5SKMm3ilFKE1zE96kjYYGfyQOVHvfR9mCUBPjFpGfQq5ZcNPrlbfADBGMHIDAACgFn64JpeZNatLPm4a/Ahg3Bjw04bFVEfI3fgcCkL1WUx/hOQfmf9w/IDCnRHna0e7MCiJ51iu5+nsKAz8g6mWY3kLqjLn+OJ66aSYxqmTTp6q39rRrAyyeX4W0nHx2ZIiMy4LB9lr64BqKbddSVl3lZ2LRddNWX1kvnO7zs4d/ba5Xuu0o4zqOFw+TyVrajoqXmHUE4wfGDdWbphCjWjpztRnxsyldVStgKP1ktyZEYdmLNqS1k+HfiF+GFmuZ7DP7nJNEVee6qs8dxR+HeZtuY7syp+vvIjW4vpcSiqdpzN6A7YvgwEoKbdZVVkLmsrOTyAzMHr3cdq+qukNl+5sBeTc060oyoTeXrrNH7eXt5HWqSGjGi6fETPw79Tn3lDTUcmG/sKyAT8AGDc2mEFySxvylF+Ot0qdFu0KmCvNpVLA8crT8URcb0Xxp7isALt2s6GV5+lr9fX8Z6akHmwvUNclN4lZvDSOR6tY5m62fDrotTn3t+rlbMZhgaW72sRkzdpgNCuD7cLI/0rN+DNla5Y3D4ui8m3sgMpe5k9LWW4NylrQUHbAll5VVbqWAvL/qHqIn3vwjWvb5gao055l1GV6ok/kdFRCm8eA4KIIfgIXYdy4a9XrtAVrTzSm53nWiPfbgJ7LFDDrPT0oPRKv5uzFus81/v1+S4vFoULYLti1QUDbff4Xcb16cc9+/RZ/83AFs2Dx1Ed25+3ikTZCG87o9j7/NL9/SdMm2fw14jBYuttgwfJQzNlwtC+DE2OMFjQpa0kD2QGCbWbdFEZCfLpL29Zr9+GC9vI2wjqtJaM9oaajks0jFl+AHwNGbmwkH/RP/Zvy76NEW/z+pXpPzYdr0/n/nC8MD6k/yfXNoeGVvNHh6PyeXt5k/orKOc33bBkp34KAfN/pd2qhA63K4NToOm1W1oImsvNj2FMwVyMDxku+N7Z/1cu4MHLi37FvODH1YNsI2rW5EdZpTRntjkOB6L0xAw+WDfhBXIRxU7kU3KasP99rK3Dn5lr+0yAOxw93ev5fKKm6lKSzf1cTTAXlvA+MXpzwLVjSeh0JJ1zu7HxOI6d1GZyYY3VaVtaChnIAOIbBeHuvy9TPhm16cWDtu81VoncZzofuTtGS2jLaESd4ElPucCIGPw2M3JwDMZUl1WsSr8gzfWF4SP1JekH1ur2V8LGJlc8Ihzs7R72tfGrIoGUAxs7+5U36mcxuSc729TslBXlrg0P3cu7LMrXPfXA4M+HAzL87lyoBwAaMm45U9uJL0E6+yYYeF1vu/pJD98pslKRzdARpv5U+Nou5UOZeOpxz4OcwDJ3K4MQcq9OjZQ2as38hOXijfJl6npIaXN70Rnz5MO9paqe2jAJwocC46cq/D9XjXNKfplaC9eWY9Zas6J6tSRYn+Sh6B9jRPeUC5UrzSL5S9u9qBdY13di0bpE2ZXBqdJ32U9agDubU1B8K605JTUHe2lBTRrth+FodBLXCjOVio0bBDlYpAnBGYNx0hfXQ9MqJ9Y7CgrOu4/gUFnxbtAHhrsX1Gn4t30+jUi/NaPkUGhuIOeSHcl6cK5r8XiB8fxK1QVkuU362jLSIaaxp/wAzjWP8I+lryfLJrD0zWZNuZcDIGZVlqbTEGEWoX9ZT5oT73BhkU1Mu3/GAwV6cR730B5K3sVFLRgG4XC7CuKlcCs5C17ni7cLTy4Nd5ayb3juK1uQWR4j16hCetyjLC792FtOqav6fn+nClP9azXN/fUW0Tn0JrEs11QZl+nqZTqr8DhwFtdJkeeMrrHQan7TRnslVsN5eZu3lyiJXzl3KgGPm04xfTKfo2BmlRh0rQ/P73G6w7Bke1V4jjcoadMKoU4F1JVCRgeTtlJxARmOmJwC4ZDBy0wty+JZv7hUnOe1MSbyh1cHGV/x6udlW7mp+rXdsVcIrLbwVbQzHYBaRNivPMp+v0tnElOTyxaKojb8Oh5JlHPP+SSLz9aI+H2W7kBud5ZMs0KUMOFk+K5NpC/eZUOWcy19pWYPusDpNDRVG8vbCvqnBIPI2QgwZ1XD55O0aRz+BC+c/Fr7lv2DM8HNuIj7cEq/oCpPbAAAAQCkYuQEAAADApIBxAwAAAIBJAeMGAAAAAJMCxg0AAAAAJgUcigEAAAAwKTByAwAAAIBJAeMGAAAAAJMCxg0AAAAAJgWMGwDA2eCbU4pjA7qegdIUfeSBeaRBQ/xQ5v2E5221Zsx5A2AAJmncaIVZN0ABAAAAAJMBIzcAAAAAmBSTNG72wZyurq5ywUuPBE425BV+u5oXD7YEAEwafuikaP8/9NBMAEAlGLkBAAAAwKSAcWOSOuGVOhk6FOykn84ukF46eYdI9nto+PvsQgr8Km8eh/wgpJ26Z704AEwUx2/WfopOwexzaLSlHWuTudi6fZuhhkOxLV/HmmhZnEpH3xb6oE3eALgAYNyYbP+SnL1y6cGmIZx7up3xfxJ6eylOZN1R+BXR0hUXSGYuLdeRNoTycEMpovXSpZkRpToOAOcgM+pP53zP2k+0btB+CnBDJ1pSPvqa/rReCqUQ97XkK/qi8E59LlIaZ0fBjfp8QAt90CZvAFwIMG5y7OnlTfrmzG7vD5S4c39LQo0kb3Rg27guuUlMKy/15fFoFat7LZ8OelN+yAwhcTMzTuYbZIsDwGRp2H7yXNPD05I1pQ15ZltaxfShrhBsF/q3K2/DuijHYAYHu69s84d5c1meD6mKQ7RkxouN5vqgTd4AuBxg3BTYv7xJpTe7pfucMvHpj9Q+FD/bHJAT2jwuaKt/2DNd+qhGgmZ0a96M9bgehO5hcTwzjnSG5krwIA4Ak6ZB+zlgRrPPFc0XrF2abYkZM0EXb2FjpLY8bwVaxWmhD9qkA8AFAeOmyD6gZ6VMluaYtn9Hsi8U06tNYdpGc5ii0SNBv36Lv4Lfv9jdGdY4rIP5KjKQjwPA2dhTMFcjA6daWdik/ViIrY2yI5XtNMtbjt7jlOiDNukAcEHAuLGQKhNy77SzoX+nhnnjV/vS0c93q9Lfv3/Kf65v9DSXc3Mt/5ktKUodAc2wVmkZcQCYNA3azyEJffxT//aIbqfH8mbQKU4DfdAmHQAuCRg3NravJM0bl+64dWMOG//FrhgAjItPere94QEAFwuMGytb+qsmrd2HgPwqR+KUkp6lrYele1XxSjsOWgM2FwSXQoP2MxTHRo103gw6xWmgD9qkA8AlAeOmhMyxeElr5UicvL2UK9gDB2SOQ/fS648Sc9z834e8tzHtBcBF06T9DEXaTo/kLUeXOE30QZt0ALggYNyUsX+hvE+ebW8bkxktn0LK9ttyyA+f1PLOQlzttOzSesfjmNrJIccPxMZcQx+UDICdIfa5adB+hkLrgKq8FWgVp4U+aJMOABcEjJtS9hRIjSOJnymo0q9xTPGMKacodQSMaK0210o2jwdxtwtPLtcUcaLMeZDFi9bL/MZcAEydhu2nMXzDO93GWIjUHjHcoDC/z+1YzHTAo9oPx5K3mOX5kKo4RJuNLU4bfdAmbwBcDjBuqtCOxUz3Hl1q+koLb0UbtfGYIIlps/JobtXMfHmtJzYaS4wovJeaxBsRbwHfZXAxsPZzxV7wtdvPQPADNm3t2ruixav6XKQ0zpyCd/X5gBb6oE3eALggvhFKgh9+s94QC+E3681Zr3GCnbwm9K2/IyAgIKQB+gIBYZiAkZsKju5tAwAADfj9S021ncNBGoALAsZNCY4fijlyzkl2PwUATBOHn04uT/POXIMd8oOd0ilncpAG4IKAcVPAD6VjXpRaNsmGsG8fAKAJ1zN5mne243CUbSnRh4M0AKASGDcVcEc+DxvpAQCasA/oUTn6mr7ByRgcpAG4EP5jgTvfAAAAAABMAozcAAAAAGBSwLgBAAAAwKSAcQMAAACASTFZ48YJdnKVAg5oAj8FfUSAeQQAAACApmDkBvSHw/fyCGmXHrLIwi4wDwGsS3ZQo9U27S2dMoyDIssCjGYAABgtP8+48UP5cjnZ6cQT5dTlxu8f8b08XJoVz/hriv9Hnmps22Ooz3QAAABMEozcgP5IEoo3K/K8K1q1PpTYoeBBbqAYP5fsMdRLOvWIV1d0dWUJpzjVlB+EKO6/wHEfAADQARg3oB+2C7qaz2kRbGnfZY+ydNSGYrKeetFXOgAAACbLGY2bQ7+JL3UeS5H0SAQR0mMRZktja3MZyt0gHApC5WDMA0vHkoxB/bxpis6g4nyZLP6OZS6NnXd2Pl3eupfb8KSHlSabv5cxepFOF+ZCDYdixxdyI2VOhd2OwiCTsy5UOeSX/XZMrivbDwAA9MiZjBvusGnxm1DnsfTrHHoj0lq6RkIsnXVU9gLpIW/c0ImWlE9yTX8OEjxD3sYMKzc5IxXT80i2qHcfjBf0FzMmwuCI8TkAQr7WQm5MMeBC4S7X9HR2Obij8OtQrichowCAH8FZjBs/ZIpP6L2YVl7mx+Bt5Ekss+UTmTpwu8iuuUqdLJINeel3KljdINwl3VJ2rbfaqPNeXLqzWBBN83bINT08LVl0lqYZn+X7Q12hOXHeOpXbGfD/LMXLelSjNnkrkr2jl8z43PU32sWn2dK68NL6r8a5v1VGTV4OrjyPVpuYPsVvZ8R1yU3MvLF8xXXbDwAAdGd440b3zhPaeAvaGh30fTBXDqIzur3vSwPG9GwcfrnfBvSs3vNu0YLoJW/sBfi5ovmCpWnGZy+x4OCNPXTeRozxfG8vxsOdi095yKFpCHreiuQ7ekbuene2l/TvX9K0EUagWVRM4LbBghZnH/ViMvpoyijL1+KRpA3+g2UUAPBjGN64+f2LqTdG8ka2d9j2Vb7dZ79+i7+dST7on/o35d9HSf+4p7zFVk9YC2fI21jRoxHxM51/RmpPwYIbo/vcaq39fkuLOTNwxKfzvaRTGZktI+VnE5DvO7342vSCVUb39PKm8v1DZRQA8HMY3Lhxbq7lPxbHVhFSx9frm36U9ed77gVVRT95S+ijaLGUMXjeGsD9OizpnMZnwqc/cmMb2hxsbDM2tvQ3nQY800t6H6SjIAzhZ7Ok9ToScsF9gs5u5JTI9f5dTZj1JaMAAFDCmRyKp8wnvde1WIDACR5ImGajGLU5zvlf0nsK5tzHZiV8bGLlz8LhPkHRmJa/AQDAGRjcuNEvhnilfRmswfBFGQrkzUBvKJcP896tj3TUhj1a3em8M6NH0RqMvJ2E/Vb62Czmom5Sx3Jy744vJT8lJUbfaMoNADB5hh+5+fdBQgWfWwHbQN6Gx7+Toza2oxZGiUP3t9IYS2rPPw7D/uVNykgPlI9OZc9fyuyWDt2RxltuAIDpMbxxs09XBLm0FhvWmVrQIccPxOZfpSPr6Ut+tqQ/fW840jVvp2TM5dYa5/hRC73C9wlS/kMVZ2w5fJNEsZ9N/grH8Snk+xKJd/S59uLhz8CdiH1+fmgG39TvSS6l7wVTXrSflUN++KSev4oZLZ+4jKqPuXgjWQ0HAJg0Z/G52S486RApNqyLDIfViKL1Mr/5V5H9C6lFF+Suzbj97LTbKW8nZszlxqeXQuOe2YbIRlpFg6LqgMxSWqTTmGu1n02+nKJorTZmTChe9XD+U9FpO0qNE1a/5vcHOxbLzfqiyLiGb+qnqr+XvJnyoss2YuX9SRvtzVxCHFMsZDTNH48nM5dsHn+EXxUA4GdzJodi7hDpiY3tkpyeTCiJN2J/kfKN5WTcTcyuVd/0S5e8nZoxl1tThh61qQ9fjcQddZN8IbNi5uXMD+ycn10GbPlL1MZ5/eQtk5eUhBmhK29BL+pzOa+08Fa5uKzghHz277MFAAB2vhEQBg9O8L37+vr++gq/fdvvCD8uOMGO1Ser09C3/o6AgIAwVDjTyA24dEZ51AIAAIBJAOMGnIX03CtMUwAAAOgbGDcAAAAAmBQwbgAAAAAwKf5jgTvfAAAAAABMAozcAAAAAGBSwLgBAAAAwKSAcQMAAACASQHjBhzgBDu5bf6Qh2jpowiKRw0AABrjh7INdz6KpCfEuWzpcRwqnOWQPnAS/T42eWNM1LgxDkhkwVaHfih/2+lDAQEAAPQO77joc9mO4Djk84NrDf0NHQ3acBEjN+7dQD2EEVqvoCOoUwA64dzfygNhkw15V3LzThGKh6DxthZFtF66NKtjCAFQwWVMS7l3mOoYO/uA5kLp9XCiNQBgNPz+pU6Ef3s5fkBuklC84YfTXtEqVt8B0ILJGzfy5GSXHjC0CQAA42W7oKv5nBbBlvY4lQV0ZPojN29vxDsAs9v7BtMKh/O+X7uQAv/wDqnvjghrV345W1KUfqeC9PvJfIGO+nJpB9sd5ewyx6cg3KnfZNiV5E1TdNZln03nvh3LTL2yKfoy1S9RK+mUTy6UOxTnHeFYXlg56HisDCqzYym3r92OwuDw2ZvVqYnDkuFla+SLh5J0Oj0P4zAt9nxhUBGvvlwPhpaBsnrPZC71vThWbseep3m5taNuOlUOnkedP5Vc6zT485c8R6d0GuFTmOaHhawJRfq7/tJqT2M5GEz3DthObfJT+Tz15e3cXMC01Av93STi5fSnVlviytQy7ztzabmOOjq37en9U/531A/o9y81T/1GL2kvhjeUaE1LdyZ/U8ya5E3cY5lz7pu56xplI8tlqeLFK48W23N1r25kXvIPQeuo5AVZUm68gt3lmp56ap1+GFG05mWbS0WnEzFFYC/mhs8j6uLLkhZ7PndJ6yebf1AXuZbpSWXWs+/R9lV0PvjoqrVJOPd0K/Kb0JtuCCl37CV6WG7lz9Om3NowUDqGXGv480fM8L5Tn4GFFvUzmO7t0k6bwtqPTX7K0vlh8nYRPjf7lzemGus5FvMXlHyBx7TyMuc3jxtIjNnyKWeppqdbi5BOEhcd51hIfee2r+qa65tKBefcXMt/Pt/VPDUT+qelbFiJmTePVrE9b4dc0wO7B8Usf+azsXx/qCvsyAaXGTb8eXowbPgwtMrDlbcRdVQLpoBuKStjb5XGtb8gtUNjoU6vPFZ2m5iUvalpWqcZ3F9gw9Lwctd53kq+wJkisE6PNnyeTEZZeszINPMl0io+EKOpXA/HltImYWuf/h8l8/EzHRwg77rkNmgLbcqtDcOkU60PXFY252NLC+OZsyaUbxcHDsUD0bx+htO9g7bTRu1nzPJm5zIcivcBPfMGdsyxmFmmD6KOEtp4CzLf3/tgrhrpjG7vO0jXvw92d8bsF/0WX9hw6F52Vyn5+Cf+mj3YzaOZtz17GT+SlP1jeWO9js8VzRdBbk57z4yMoFTPmIYNVwa2l/rQxPQ8Z8+gPu23qn4Zthekdmjc/M3VKS+EbbCgxcFbsx3bBfcXCFga+fvt90zZKw0/+2Wr9QbPo2WUxVqx9NgD5R+JpcXrV30WDCHXHdAG/0H79OkufdZXm9A1aAttyq0Ng6VTRx+AA1q1n4F07+DttEn7+XnydhnGDUMq0COOxbapIINUCdtfUDXZv6uRAqNXnvod6Dno3yTfx8ZQfGXe9vTyJqXrWN7sL4ky1HSJyotUBuKH85J8kDL5NP8+yltX+puY8xf+LwH5vsPMtv5J5/Fzvj08pI4HthG7Js+j5WBDf+vWRWe53lMwVz01wwjrje1fpRwL7dO/Y99wYrLbNg3aQptya8Pg6VSXASjQe/vpUfdWptPT+8ekVfv5OfJ2McYNkwymIlmFVTgW66kgi/Po0RdUbbJh+OsbeRc/7Z6m99VK/ZPelSAdTlPl2afOPJV5SygdCKqFu1SGjeRoXNbzOHips9DvPDGjpAzK2AdGz2LG/V+WtF5Hoo65A2FfufPDnZ7HN4rtOA2e55gc2BhGrrtgKFSjfep2Eb/atwdo0BbalJumgVx3SqcBtfVBXwzVtttw4vqpXdYdda9Op007bVM/DZ5ncHnrgcsxbph6bOZYfDr0SIJQ5HLoPYljSma3xEcCtSCVKfXWZMZSfRK+9QRjRsveHC6HRo08eCvhYxOreWUOdyCM+li1wZTLg3K0S2K5T0c6Xy6CmpYCdlK/ONYoRBtgps2RKSkAfhJtdC/owgUZN5kCLXMs1tYneznlXkzF0HFoPlPkv+i3GKVJ6O3vX3pL+Dynf+hvwzjWO2jTIzmOnIqaPyoHV96jqDIE9EZ8+TDvyaelM/ut9LFZzEW+Uie9o75YNTB3YX1cbHPz6hxdPx2p10vMM5Rcd2L/wuSf/6Pm+o9NSXEatIU25aZpINed0mlAbX3QF2Nu2yeun9pl3VH36nTatNM29dPgeQaXtx64KOOGC0DqWGxduZY6+556R2Ptd3NNDw9MKMQ8plwmPrt9UI5bXLYMwdSOyGnP1sTigNwH8bP0seENJx15cNfH9+j5IWgjs0+sCi6rn85oOWgwAjmUXHfCnJr6Q+GxKSlOk7bQptza0CKd8hdHhdzU1AcmrdKZGl3az6l1b5rOUO20VfupL2/n5rKMG0bqWGxduZYaP+z3Nd+TxDFrUW7QxjcwKn255xrOgQQY/CM5MzWj2WzGbBu5LbnIm/bXKPRYjZ7t8onnTXzLcMgPn7TT7+FeID2xXShvfW7flO2/Mkb4ai+1iV6uOv1saWMVNetUvziE8Wdcx9IJjWX0ndEyypPisph3jHZ4ekU/oq5yLcpQzeOf8IytbEQzbZ8JbSq9Phu0hTbl1oY26Zgypn0kzGexUEsfFGiTztRo1X4G0r2d22lTmrSfFvJ2Zi7OuEkdi8vYLjzpfMoU7Doyd9SUG7TlNjAqogWAN5z8bpx5gTS9yw0hMvN2sIJmT4GeHuJ5y/K1Tn09No+He4H0yHaxUvlj6XdtYUUHuCg1NNi9ze8rdiyuj9pET5cZC3wzKlWV8WpRPjpQt071ip/CdSwddxbTqkefGy2j/LmUY3SaXsTTs4wQd5LroTDKWlCyakQTxxQ3aAttyq0NjdMxZUzv4suf5ZM2qVAdUK0PYlY2B7RKZ0iYYaHKiQfrzsY9GNfN5WA43TtoO23UflrI25m5POMmdSwuhTufemJzJelIm5JQEm9oI3bmVV8dIONuYnat+qYM3dPPKfBsJZX1kDlm2c+91cH9kyQW+Tr9/PeWFulme+56HCsljiLrhDsSy3PGMni58c2oqpe3161TlU6xbpjMrPieFepzP/C0+AZgG4pzzyRldPVo852R+Wsn10PB8ph2qxnHD1p8ZfIo24Omsi20Kbc2NE1H1o35HEki5eZFfbZi6AMNf34u06/qc46W6UyOFnIwmO6VdTRMO2Xt5yovD0J+yp6nsbydl/9Y+Jb/AgDA+OHnIEV82I07Xp7fIgMAjJALHLkBAAAAwJSBcQMAAACASQHjBgAAAACTAsYNAAAAACYFHIoBAAAAMCkwcgMAAACASQHjBgAAAACTAsYNAAAAACYFjBvQHT9UW3GboY9jE06APvZhpPkDx/lJ8taGPmQ0LaMTngUGwJiZsHFjHPZXGXb0I04RAACAwamhR/s7yRGA3sDIDejOdkFXV1cypGdPnRr0TC+Xc8gbAOBHcRHGTbxSitAa5ic9SRuMDH74m6j3vg+zBKAnRiqjpXoU53uBEYKRGwAAAABMChg3Bvy04WwO2aEgVJ/F9EdI/pH5D8cPKNwZcb52tAuDkniO5Xqezo7CwD+YajmWt6Aqc44vrpdOimmcOunkqfqtHc3KwA+Na9au/HK2pMiMy8JB9to6oFrKbVdS1l1l52LRdVNWH5nPx66zc1y/ba7XOu0oozoOl0/IGgAwbuzcMIUa0dKdqc+MmUvrqFoBR+sluTMjDs1YtCWtnw79QvwwslzPYJ/d5ZoirjzVV3nuKPw6zNtyHdmVP195Ea3F9bmUVDpPZ9SE7ctgAErKbVZV1oKmsvMTyAyM3n2ctq8Ui39curMVkHNPt6IoE3p76TZ/3F7eRlqnhoxquHxGzMC/U597xH0wjcKqjhsA5wfGjQ1mkNzShjw1p+ytUqdFuwLmSnOpFHC88nQ8EddbUfwpLivArt1saOV52dx1ej3/mSmpB9sL1HXJTWIWL43j0SqWuZstnw56bc79rXo5m3FYYOmuNjFZszYYzcpguzDyv5KvREqyekrDgQtAYwdU9jJ/Wspya1DWgoayA7b0qqrStRSQ/0fVQ/zcg29c2zY3QJ32LKMu0xO9kzMKVcct2h2OlAIwAi7CuHHXaW/DEqw90Zie5wGlunS/Dei5TAGz3tOD0iPxas5erHsdj7Pfb2mxyO6Vsl2wa4OAtvv8L+J69eKe/fot/uZJaPO4YPHUR3bn7eKRNkIbzuj2Pv80v39JhZRs/hpxGCzdbbBgeSjmbDjal8GJMUYLmpS1pIHsAME2s24KIyE+3aVt67W702p7eRthndaS0Z74jGlj67SpduCusZ0GGB8YubGRfNA/9W/Kv48SbfH7l+o9behvQ/2bzv/nfGF4SP1Jrm8ODa/kjQ5H5/f08ibzV1TOab5ny0j5FgTk+06/UwsdaFUGp0bXabOyFjSRnR/DnoK5erEZL/ne2P5VL+PCyIl/x77hxNSDbSNo1+ZGWKc1ZbQ7rO4XCwpsnba5GvEqNfQBOB8XYdxULgW3KevP99oK3Lm5lv80iMPxw52e/xdKqi4l6ezf1QRTQTnvA6MXJ3wLlrReR8IJl8+Zn1MltS6DE3OsTsvKWtBQDgDHMBhv73WZ+tmwTS9Lovtuc5XoXYbzobtTtKS2jJ6ULf1VyuUsI6wAVICRm3MgprKkek3iFXmmLwwPqT9JL6het7cSPjax8hnh8Dnz6FwT5oOWARg7+5c36WcyuyU5CNDvlBTk7TRUGvoAnBEYNx1p07i1k2+yocfFlru/5NC9Mhsl6RwdQdpvpY/NYi6UuZcO5xz4OQxDpzI4Mcfq9GhZg+bsX0gO3qgpjp6npAaXN70RXz7Me/Jxqy2jJwZtAYwVGDdd+fehepxL+tPUSrAqBIfupaegHd2zNcniJB9F7wA7uqdcoFxpHslXyv5drcC6phub1i3SpgxOja7Tfsoa1MGcmvpDYd0pqSnIWxtqyuhpQVsA4wXGTVdYD02vnFjzZZF5Z13H8Sks+LZoA8Jdi+s1/Fq+n0alXprR8ik09pdwyA+f9FL0/F4gfH8StUFZLlN+toy0iGmsaf8AM41j/CPpa8nyyaw9M1mTbmXAyBmVZam0xBhFqF/WU+aE+9wYZFNTLt/xgJHQ5qiX/kDyNjZqyWh3nCBU+9nkS1boNV1uMT3jDBswMi7CuKlcCs5CV7eT7cLTy4Nd5ayb3juK1uQWR4j16hCetyjLC792FtOqav4/jilmyn8dpWlEtE59CTaPlr1A1AZl+nqZTqr84lXh/BqtNFne+AorncYnbbRnchV7CjJrL1cWuXLuUgYcM59m/GI6RcfOKDXqWBma3+d2g2XP8Kj2GmlU1qATRp0KrCuBigwkb6fkBDIaMz3RD9dqP5t8GxN6TWSS7+01rjOwAOBg5KYXpNMu39wrTnLamZJ4Q6vH4oosfr3cbCt3Nb/WO6YoXmnhrWhjOAaziGIfisP5fJXOJqYkly8WRW38dXjmnYxj3j9JZL5e1OejbBdyo7N8kgW6lAEny2dlMm3hPhOqnHP5Ky1r0B1Wp6mhwkjeXtg3NRhE3kaIIaMaLp+8Xb+qzx3hqy1t+oMXtnTM5nt7qe8AGBH/sfAt/wVjhp9zE/HhFqZQcAovAAAAUA5GbgAAAAAwKWDcAAAAAGBSwLgBAAAAwKSAcQMAAACASQGHYgAAAABMCozcAAAAAGBSwLgBAAAAwKSAcQMAAACASQHjBgBwNvjmlGJL/65noDRFH3lgHmnQED+UeT/heVutGXPeABiASRo3WmHWDVAAAAAAwGTAyA0AAAAAJsUkjZt9MKerq6tc8NIjgZMNeYXfrubFgy0BAJOGHzop2j9OtAZgimDkBgAAAACTAsaNSeqEV+pk6FCwk346u0B66eQdItnvoeHvswsp8Ku8eRzyg5B26p714gAwURy/WfspOgWzz6HRlnasTeZi6/ZthhoOxbZ8HWuiZXEqHX1b6IM2eQPgAoBxY7L9S3L2yqUHm4Zw7ul2xv9J6O2lOJF1R+FXREtXXCCZubRcR9oQysMNpYjWS5dmRpTqOACcg8yoP53zPWs/0bpB+ynADZ1oSfnoa/rTeimUQtzXkq/oi8I79blIaZwdBTfq8wEt9EGbvAFwIcC4ybGnlzfpmzO7vT9Q4s79LQk1krzRgW3juuQmMa281JfHo1Ws7rV8OuhN+SEzhMTNzDiZb5AtDgCTpWH7yXNND09L1pQ25JltaRXTh7pCsF3o3668DeuiHIMZHOy+ss0f5s1leT6kKg7RkhkvNprrgzZ5A+BygHFTYP/yJpXe7Jbuc8rEpz9S+1D8bHNATmjzuKCt/mHPdOmjGgma0a15M9bjehC6h8XxzDjSGZorwYM4AEyaBu3ngBnNPlc0X7B2abYlZswEXbyFjZHa8rwVaBWnhT5okw4AFwSMmyL7gJ6VMlmaY9r+Hcm+UEyvNoVpG81hikaPBP36Lf4Kfv9id2dY47AO5qvIQD4OAGdjT8FcjQycamVhk/ZjIbY2yo5UttMsbzl6j1OiD9qkA8AFAePGQqpMyL3Tzob+nRrmjV/tS0c/361Kf//+Kf+5vtHTXM7NtfxntqQodQQ0w1qlZcQBYNI0aD+HJPTxT/3bI7qdHsubQac4DfRBm3QAuCRg3NjYvpI0b1y649aNOWz8F7tiADAuPund9oYHAFwsMG6sbOmvmrR2HwLyqxyJU0p6lrYelu5VxSvtOGgN2FwQXAoN2s9QHBs10nkz6BSngT5okw4AlwSMmxIyx+IlrZUjcfL2Uq5gDxyQOQ7dS68/Ssxx838f8t7GtBcAF02T9jMUaTs9krccXeI00Qdt0gHggoBxU8b+hfI+eba9bUxmtHwKKdtvyyE/fFLLOwtxtdOyS+sdj2NqJ4ccPxAbcw19UDIAdobY56ZB+xkKrQOq8lagVZwW+qBNOgBcEDBuStlTIDWOJH6moEq/xjHFM6acotQRMKK12lwr2TwexN0uPLlcU8SJMudBFi9aL/MbcwEwdRq2n8bwDe90G2MhUnvEcIPC/D63YzHTAY9qPxxL3mKW50Oq4hBtNrY4bfRBm7wBcDnAuKlCOxYz3Xt0qekrLbwVbdTGY4Ikps3Ko7lVM/PltZ7YaCwxovBeahJvRLwFfJfBxcDazxV7wdduPwPBD9i0tWvvihav6nOR0jhzCt7V5wNa6IM2eQPggvhGKAl++M16QyyE36w3Z73GCXbymtC3/o6AgICQBugLBIRhAkZuKji6tw0AADTg9y811XYOB2kALggYNyU4fijmyDkn2f0UADBNHH46uTzNO3MNdsgPdkqnnMlBGoALAsZNAT+UjnlRatkkG8K+fQCAJlzP5Gne2Y7DUbalRB8O0gCASmDcVMAd+TxspAcAaMI+oEfl6Gv6BidjcJAG4EL4jwXufAMAAAAAMAkwcgMAAACASQHjBgAAAACTAsYNAAAAACbFZI0bJ9jJVQo4oAn8FPQRAeYRAAAAAJqCkRvQHw7fyyOkXXrIIgu7wDwEsC7ZQY1W27S3dI7jOD6FO2Uoi7CjHctU7mxDAAAAo+LnGTd+KF8yJzudeKKcutz4/SO+l4dLs+IZf03x/8hTjW17DPWZzhH46F8UrcnNJTSjmbum6A/GVgAAYKxg5Ab0R5JQvFmR513RqvWhxA4FD3IDxfi5ZI+hXtI5AjOionTTtXhDK5bW1ZUM3mpD8Yf4qV/4QYgijQWO+wAAgA7AuAH9sF3Q1XxOi2BL+y57lKWjNhST9dSLvtKpJDOwKF7RfBHQ1khrvw1E+gAAAMbJGY2bQ7+JL3UeS5H0SAQR0mMRZktja3MZyn2H2csqNPwmWDqWZAzq501TdAYV58tk8YWfhriQ/2Q6O58ub93LbXjSw0qTzd/zjV4493QrDKyENqc+eyOdLsyFGg7Fji/kRsqcCrsdhUEmZ12ocsgv++2YXFe2HwAA6JEzGTdM8e0sfhPqPJZ+nUNvRFpL10iIpbOOyl4gPeSNGzrRkvJJrunQTeMMeRszrNzkgElMz+fcov73LxLFm7zRKM83FPK1FnJjigEXCne5pqezy8EdhV+Hcj0JGQUA/AjOYtz4IVN8Qu/FeV+GjTyJZbZ8IlMHbhfZNVepk0WyIS/9ToWFrZPtLumWsmu5v4RMxaU7iwXRNG+HXNPD05JFZ2nm/DRiOnDTOHHeOpXbGfD/LMXL+qyjNgzn5lr+8/lO+4MRiP5GRwR8mi2tCy+t/2qc+1tl1OTl4MrzaLWJ6VP8dkZcl9zEzBvLV1y3/QAAQHeGN2507zyhjbfI+zIEc+UgOqPb+740YEzPxuGX3F/iWb3n3aIF0UveWG/6U/ppmD4he/YSO3TTGDpvI8Z4vrfRDJfYRtbk6Eh0xrm8379kfoQRaBYVE7htsKDF2Q9mZDL6aMooy9fikaQN/oNlFADwYxjeuDky5L99lW/32a/f4m9nkg/6p/5N+fdR0j/uKW+x1RPWwhnyNlb0aET8TKM5NFmNrOVGINQoGbnrs/kqpTIyW0ZqJCkg33f6G03qilVG9/TypvL9Q2UUAPBzGNy40UP+FsdWEVLH1+ubfpS1mFqoRz95S+ijaLGUMXjeGsD9OizpnMZnwqc/Yr5tAAfeRsiRtdwIhB4ls4yuDcQ+SEdBGGIkaUnrdSTkYheOYP+nErnev6sJs75kFAAASjiTQ/GU+aT3uhYLEDjBAwnTbEyjNpz41er7k46Sne8lvadgzn1sVsLHJlb+LJyZy4zfM06ZAQDAGBjcuNG9t3ilhvpLguGLMhTIm4HeUC4f5r1bH+moDbclxjFqo8t67Oy30sdmMRd1kzqWk3t3fCn5KSkx+vKO2gAAcDqGH7n590FCBZ9bAdtA3obHv5OjNrajFs7F9pXE2ExJWad78YztJb1/eZMy0gPlU0gO3ctNgMqZ3dKhz3AWL6k9bwsAAO0Y3rjZpyuCXFqLDetMLeiQ4wdi6W3pyHr6kp8t6U/fm4J1zdspGXO5tcY5ftRCr/B9gpT/UOUZW1uSM0+8rANjU0W+geKOUvem84w08WdQy9FzIuBT8CSX0veCKS/az4o9f/iktiOoYkbLJy6j6mMu3phWwwEApspZfG62C086RIoN6yLDYTWiaL3ML70tsn8hteiC3LUZt5+ddjvl7cSMudz49FJo3DPbENlIq2hQVB2QWUqLdFqwXaxIuLKwl/s6StPjGyiqMo5X3fcHKjptR6lxwurX/P5gx2K1HF3niwW+qZ/OWg9nU5nyosuWPb/7SRvtzVxCHFMsZDTNH48nM5dsHsflVwUAmCRncijmDpGe2NguyenJRBxSuFl5FS8OGXfD3jxHVGxLuuTt1Iy53Joy9KhNU7a0YOXFN5/LF3XCjAePrs4mBLIeuSNxkhcC9llunNdP1jJ5SUmYEbryFvSiPpfzSgtvlYvLBFTIZ/8+WwAAYOcbAWHw4ATfu6+v76+v8Nu3/Y7w44IT7Fh9sjoNfevvCAgICEOFM43cgEtnLEctAAAAmB4wbsBZSM+9wjQFAACAvoFxAwAAAIBJAeMGAAAAAJPiPxa48w0AAAAAwCTAyA0AAAAAJgWMGwAAAABMChg3AAAAAJgUMG7AAU6wk9vmD3mIlj6KoHjUAAA/GMg1mAAneSf4obxnD8fl2JiocWMckMiCrT78UP6204cCAgAAAGAKXMTIjXs3UJ/pxJYoOAOoUzB2IKMoA3DAZUxLuXcYEh47+4DmV3zX4h5OtAZgLECuATgLkzdu5MnJLj1g+gkAAAC4CKY/cvP2RjH7M7u9bzBc6ZAfhLQz/Ha+diEF/uEdUt8dEdau/HK2pCj9TgXp95P5Ah31y9KOiDvK2WWOT0G4U7/JsCvJm6bo1Mg+h8az7Vhm6pVN0ZepfolaSYeSc6Hc8TLv1MbywspBx2NlUJkdS7l97XYUBofP3qxOTRyWDC9bI188lKTT6XkYh2mx5wuDinj15XowtAyU1Xsmc6l/3LFyO/Y8zcutIQPIdXsZ5bSQgwY6pJtcn0r39kNj2RlMXw/YttUz1U7Hdv0JslXkAqalXujvJhFC/6eWkHNlGtF66dKMH1udMnNpuY46OiDv6f1T/nfUD+j3L3FqNiVv9JKeLcmFPlrT0p3J3xSzJnkT91gSu4Vm5q5rlI0sl6WKF688WmzPdejljcxL/iFoHZW8QErKjVewu1zTU08tzQ8jita8bHOp6HQi1qjtxdzweURdfFnSYs/nLmn9ZPM76CLXMj2pmHr2adi+is4HH121Ngnnnm5FfhN60w0h5Y7Cr8NyK3+eNuU2JE3loA1d5EBRW4e0ketT6d6utJCdwfT1kOXG2px6Jk1VOkYZaPj1ETM679TnE8KPX5hYcL6ZIH4zZfzNCvybFfA3s4S/WU9CX8Os/ux3I276PbOav5kxqr9nvRH1/e6b1WEujg5+KK/ZBd+smttfw4JOT+c5eyZm+Rp5c1iej+QtfX72O7Psv1lP49sxn43lKfCNz1Vps8A6Dvra3oLOI3s22+8sZHXAnsEoP9abUnHtecvi5euUHFZ2QfgdFmQgF2rWFw+8HsIgYGnk7+c4/neo8mfKW9vnyWSUpec7uXyJtHj9Gt/l47SQ65zsHS+HpkHnzWifVb+Z5dakLbQpt87hhHKtQyMZlfdrLAcNdEh3uW4how3KoE1oLjvD6etO5VYzmHVa/3nqlAH/7TR1xoL1yx8eskJNXyZSAFgBq2tSgcgZN4ZQ2YTBGscMdRpYDWVny3913izXm0HHZcHyAikGLcjiWkNAWdonMWx4qFEuWQM7vEY38IoXZGm9VYW+lGZ6H+tLusHzGHVZuy4qZadO+ZhK6gSKKC2bg3LIjELzWauVdklbaFNufYQTyrUOdWW0ixwY5VeZFxa6yfUJdW/b0EZ2Kp+nR33dtdxqhm5trjrOSeqMhctYLcXYvvLB7yOOxbapIAN5D6LZr9/ibyv27yRnpoxh+HSOnrUcyW/6JTOSDcVX5m1PL2/ccfp43uLXJms21LCyyku8mtNiDEs+kg/6p/5N+fchn99G+ttsGZH0fwnIZ92ICkloTTonzxp1NsfMQ+oTcH1zmG6T59FysKG/deuis1zvKZjzFT8szAP2qWe2f4nPHB+0T/+OfcOJySq2TdpCm3IbmoZy3Zie9FttHdJKrk+oe9vSe5vrUV8PXW6t2lx1nFNxMcYNq+WjjsXOzbX8x+KUdvQFVZstKXljt5F38e8K99VK/ZPelVDovH2+W18u+9SZpzJvCX0UtU0V7lL72HCOxuXzq5ZyY9a8uqAnSsqgjH3wqF6ejBn3f1nSeh2JOubOgH3lzg93ek7eKLbjNHieY3JgYxi57oKhHI32qdtF/GpfRt2gLbQpN81I5bop/chBAx0yZhltUKed2lwDGT3keFl3Krc2ct3geWqXwYm4HOOGqcdmjsWnQ48kCEXuE9fhSRxTMruleyYZWijKlHprMmOpPgmJ1fTsdb08u8NlW9TIg7ei1SamOE4tHfZUzICL9IhZB5iieFBOc0m8Is9TIx1pWCmLFljZv7wxSWOoNsBMG9EuOM1GG8FpaaNDQDtQ1l24IOMmU6BlK5W0JcleTrkXUzF0HJrPFPkv+i1GaRJ6+/uX3pIZ3d77dC+Xh1BimO3HLP02vYvjyKmo+eNG5feIIaA3LMuHeTCSFrrf0jZY0GIxF/ny0uGcHjZ5dO5v1RDshh4XW9oXHlnXT0fq9fjyDCXXndi/MPnn//A2wJ7s2JQUp0FbaFNumrHLdU3GLAeD561BnXZqcyfW153KrY1c99jm+tKJZVyUccMr85l3oNnLzLoK7d+HfImfekdj7XdzTQ8PrILFnKRcJj67fVBLX7mcGEKW5k33bE0cq0HUmfhZ+tjwRpCOPLjrXveNOCfayOwTq7LK6qczWg4ajEAOJdedMKem/lB4bEqK06QttCm3qTFmOfgJeWvT5k6tr4cut1ZtrjrOqbgs44YhHaxccpXuzJEaP+z3Nd+TxDFrRG7QxjcjKn255xrBQW0a/CM5MzWj2WzGbJsX8UIUedP+GoUeq9GzXT7xvIlvGQ754ZN2+j3cC6QntgvK7Js+9904NXwPCLWJXq46fQqelqqsK6hZp7qXIow/4zqWTqidsntAyyhPisti3jHa4ekV/Yi6yrUoQzUnf8Kze7IRzbR9JrSp9OBs0BbalNtPoa7e6SwHJ2Qw3duCVm1uIH09eJ02aXN1yuB0XJxxkzoWl7FdeNL5lCnYdRQZjlZyg7bcZkRFdGXyRmDGLe6SaXqKGwJh5u1gpcGeAj09xPOW5Wud+npsHumUI+XbxUrlj6XftbUUndmi1NBg9za/r9jZtT5qEz1dZizwjaVUVcarinN/6tapXvFTuI6l485iWvXoc6NllD+XcoxO04t4epbR3k5yPRRGWQtKVoBo4pjiBm2hTbk1ZlC5VtTWO+OWg2F0bzuay85w+nrQOm3U5qrLIGb3OiWXZ9ykjsWlcOdTjzz2MpKOtCkJJfGGNmJnXvXVATLuJmbXqm/K0D39nALPVlKlozk5mJU+91YH90+SWOTr9D4AW1p4Sljddf+rRU6CrBPuSCzPGcvg5bbyro4sb69bpyqdYt0wmVl5fR+ayNO6YjK6oTj3TFJGV482vwSZv3ZyPRQsj2kXmWFtAzlemTzK9qCpbAttyu0nIOu2jt4Ztxx0yVuTMmhDC9kZTF8PWaeszV3JctZUPY9RBhp+Pde7r+rzifiPBb7hDQAA/AicYEcRH3bjTpTnt8gAACPkAkduAAAAADBlYNwAAAAAYFLAuAEAAADApIBxAwAAAIBJAYdiAAAAAEwKjNwAAAAAYFLAuAEAAADApIBxAwAAAIBJAeMGdMcP1bbaZuhxe/k+0dvjjzR/4Dg/Sd7a0IeMpmV0wrPAABgzEzZujMP+KsOOfsQpAgAAcEbEAZG7XU537sLCgbQAjASM3IDubBd0dXUlQ3r21KlBz/RyOYe8XTjiyAtxCKx5COOMZu6aoj8YAwXj4yKMm3ilFKE1zE96kjYYGfwgN1HvfR9mCUBPjE1GWUdCnOXFEIdEepn+FAdJfoifABgVGLkBAABQgkPBgyv/jVc0XwS0NTqD+21AiwDdBDA+YNwY8KFXMdUR8mFW1qhDY355F5J/ZP7D8QPLnHRQEs+xXM/T2VEY+AdTLcfyFlRlzvHF9dJJMY1TJ508Vb+1o1kZ+KFxzVop3NmSIjMuCwfZa+uAaim3XUlZd5Wdi0XXTVl9ZL5zu87Ocf22uV7rtKOM6jhcPvvMl3NPt2LQJqHNXxgx4OcA48bKDVOoES1dY3555tI6qlbA0XppmZNe0vrp0C/EDyPL9Qz22V2uKeLKU32V547Cr8O8LdeRXfnzlRfRWlyfS0ml83RGb+r2ZTAAJeU2qyprQVPZ+QlkBkbvPk7bV4rFPy7d2QrIeLm+vXSbP24vbyOtU0NGNVw+I2bg36nPXfn9S8p/8kYdix+AQYFxY4MZJLe0Ic+YV5ZOi3YFzJWmnJJOKF55Op6I660o/hSXFWDXbvj8taev1dfzn5mSerC9QF2X3CQ25r09WsUyd7Pl00Gvzbm/VS9nMw4LLN3VJiZr1gajWRlsF0b+V/KVSElWT2lYFDuYjR1Q2cv8aamUev2yFjSUHbClV1WVrqWA/D+qHuLnHnzj2ra5Aeq0Zxl1mZ7oA+fmWv7z+U57nmZulMg+4gXAGLgI48Zdq8ZoC9aeaEzP84A1ZgmfV34uU8Cs95RNSc/Zi3Wv43H2+y0tFtm9UrYLdm3A56/zv4jr1Yt79uu3+Jsnoc3jwpj33rN7PdJGaMMZ3d7nn+b3L2naJJu/ublylhBtgwXLQzFnw9G+DE6MORTfoKwlDWQHCLaZdVMYCfHpLm1br92nRNrL2wjrtJaM9olt9EqNePU2TQ1Af2DkxkbyQf/Uvyn/Pkq0hR623VDTKel0/j/nC8ND6k9yfXNoeFmHh/f08ibzV1TOab5ny0j1tALyfWc0va1WZXBqKofiy8ta0ER2fgx7CuZqZMB4yffG9q96GRdGTvw79g0nph5sG0G7NjfCOq0po72hRq9yI0SpBeWuD/3cADgzF2HcVC4FtylrMQRbj/ywbX38cKfn/42+0HFK0tm/qwmmgnLeB0YvTvS0lrReR8IJlzs7n9PIaV0GJ+ZYnZaVtaChHACOYTDe3usy9bNhm16WRPfd5irRuwznQ3enaEltGe0NOXqVGyEK5pTODmNUEowNjNycAzGVJdVrEq/IM31heEg1Ri+oXre3Ej42sfIZ4XBn57MNKQ9aBmDs7F/epJ/J7JbkbF+/U1KQt46UGJh6SvEcI6wAVADjpiOVvfgStJNvsqHHxZa7v+TQvTIbJekcHUHab6WPzWIulLmnh5SLfg7D0KkMTsyxOj1a1qA5+xeSgzfKl6nnKanB5U1vxJcP85583GrLaEf6HwECYBhg3HTl34fqcS6p8S7k1pejQ/fSU9CO7tmaZHGSj6J3gB3dUy5QrjSP5Ctl/65WYF3TjU3rFmlTBqdG12k/ZQ3qYE5N/aGw7pTUFOStDTVltDPpUv2STpCeOoShD0YGjJuusB6aXjmx3lFYcNYVh80VfFu0ASEc8YxfxMF06bLyMma0fAqNDcQc8sMnvRQ9vxcI359ELdfMZcrPlpEWMY017R9gpnGMfyR9LVk+mbVnJmvSrQwYOaOyLJWWGKMI9ct6ypxwnxuDbGrK5TseMOpsHDeQvI2NWjLaB+lSfZfWrO5z6QQ7Sv2we5k6BKBHLsK4qVwKzkJXt5PtwtPLg13lrJveWxw2Vxwh1qtDeN6iLC/iYLqYVlXz/3FMMVP+6yhNI2IKRmqyZPNo2QtELdfU18t0UuUXrwrn12ilyfLGV1jpND5poz2Tq9hTkFl7ubLIlXOXMuCY+TTjF9MpOnZGqVHHytD8PrcbLHuGR7XXSKOyBp0w6lRQa+O4geTtlJxARmOmJ/piu1iRcNVjHYlcOpkSOdxbCoAzg5GbXpBOu+IQuSSnnUkcNPdYXJHFr5ebbeWuFofSHTss75UW3oo2hmMwi0iblWeZz1fpbGJKcvliUdTGX4dKScYx758kMl8v6vNRtgu50Vk+yQJdyoCT5bMymbZwnwlVzrn8lZY16A6r09RQYSRvL+ybGgwibyPEkFENl0/erl/V517Y0sJSdrzA+aalV7BswAj5j4Vv+S8YM/ycG3EyL+slQZkAAAAA5WDkBgAAAACTAsYNAAAAACYFjBsAAAAATAoYNwAAAACYFHAoBgAAAMCkwMgNAAAAACYFjBsAAAAATAoYNwAAAACYFDBuAABng29OKbbz73oGSlP0kQfmkQYN8UOZ9xOet9WaMecNgAGYpHGjFWbdAAUAAAAATAaM3AAAAABgUkzSuNkHc7q6usoFLz0SONmQV/jtal482BIAMGn4oZOi/f/QQzMBAJVg5AYAAAAAkwLGjUnqhFfqZOhQsJN+OrtAeunkHSLZ76Hh77MLKfCrvHkc8oOQduqe9eIAMFEcv1n7KToFs8+h0ZZ2rE3mYuv2bYYaDsW2fB1romVxKh19W+iDNnkD4AKAcWOy/Uty9sqlB5uGcO7pdsb/SejtpTiRdUfhV0RLV1wgmbm0XEfaEMrDDaWI1kuXZkaU6jgAnIPMqD+d8z1rP9G6QfspwA2daEn56Gv603oplELc15Kv6IvCO/W5SGmcHQU36vMBLfRBm7wBcCHAuMmxp5c36Zszu70/UOLO/S0JNZK80YFt47rkJjGtvNSXx6NVrO61fDroTfkhM4TEzcw4mW+QLQ4Ak6Vh+8lzTQ9PS9aUNuSZbWkV04e6QrBd6N+uvA3rohyDGRzsvrLNH+bNZXk+pCoO0ZIZLzaa64M2eQPgcoBxU2D/8iaV3uyW7nPKxKc/UvtQ/GxzQE5o87igrf5hz3TpoxoJmtGteTPW43oQuofF8cw40hmaK8GDOABMmgbt54AZzT5XNF+wdmm2JWbMBF28hY2R2vK8FWgVp4U+aJMOABcEjJsi+4CelTJZmmPa/h3JvlBMrzaFaRvNYYpGjwT9+i3+Cn7/YndnWOOwDuaryEA+DgBnY0/BXI0MnGplYZP2YyG2NsqOVLbTLG85eo9Tog/apAPABQHjxkKqTMi9086G/p0a5o1f7UtHP9+tSn///in/ub7R01zOzbX8Z7akKHUENMNapWXEAWDSNGg/hyT08U/92yO6nR7Lm0GnOA30QZt0ALgkYNzY2L6SNG9cuuPWjTls/Be7YgAwLj7p3faGBwBcLDBurGzpr5q0dh8C8qsciVNKepa2HpbuVcUr7ThoDdhcEFwKDdrPUBwbNdJ5M+gUp4E+aJMOAJcEjJsSMsfiJa2VI3Hy9lKuYA8ckDkO3UuvP0rMcfN/H/LexrQXABdNk/YzFGk7PZK3HF3iNNEHbdIB4IKAcVPG/oXyPnm2vW1MZrR8Cinbb8shP3xSyzsLcbXTskvrHY9jaieHHD8QG3MNfVAyAHaG2OemQfsZCq0DqvJWoFWcFvqgTToAXBAwbkrZUyA1jiR+pqBKv8YxxTOmnKLUETCitdpcK9k8HsTdLjy5XFPEiTLnQRYvWi/zG3MBMHUatp/G8A3vdBtjIVJ7xHCDwvw+t2Mx0wGPaj8cS95iludDquIQbTa2OG30QZu8AXA5wLipQjsWM917dKnpKy28FW3UxmOCJKbNyqO5VTPz5bWe2GgsMaLwXmoSb0S8BXyXwcXA2s8Ve8HXbj8DwQ/YtLVr74oWr+pzkdI4cwre1ecDWuiDNnkD4IL4RigJfvjNekMshN+sN2e9xgl28prQt/6OgICAkAboCwSEYQJGbio4urcNAAA04PcvNdV2DgdpAC4IGDclOH4o5sg5J9n9FAAwTRx+Ork8zTtzDXbID3ZKp5zJQRqACwLGTQE/lI55UWrZJBvCvn0AgCZcz+Rp3tmOw1G2pUQfDtIAgEpg3FTAHfk8bKQHAGjCPqBH5ehr+gYnY3CQBuBC+I8F7nwDAAAAADAJMHIDAAAAgEkB4wYAAAAAkwLGDQAAAAAmBYwbAAAAAEwKGDcAAAAAmBQwbgAAAAAwKWDcAAAAAGBSwLgBAAAAwKSAcQMAAACASQHjBgAAAAATguj/JGnYluye2h4AAAAASUVORK5CYII=;" parent="1" vertex="1">
                    <mxGeometry x="-425" y="30" width="250.97" height="270" as="geometry"/>
                </mxCell>
                <mxCell id="25" value="VLAN 2: NGAP&lt;br&gt;VLAN 3: Core Internal&lt;br&gt;VLAN 4: E1&lt;br&gt;VLAN 5: F1&lt;br&gt;VLAN 6: Core Internet" style="text;html=1;align=left;verticalAlign=middle;resizable=0;points=[];autosize=1;strokeColor=none;fillColor=none;" parent="1" vertex="1">
                    <mxGeometry x="-140" y="110" width="140" height="90" as="geometry"/>
                </mxCell>
                <mxCell id="26" value="" style="group" parent="1" vertex="1" connectable="0">
                    <mxGeometry x="320" y="380" width="270" height="110" as="geometry"/>
                </mxCell>
                <mxCell id="15" value="" style="group" parent="26" vertex="1" connectable="0">
                    <mxGeometry x="80" width="190" height="110" as="geometry"/>
                </mxCell>
                <mxCell id="8" value="" style="rounded=0;whiteSpace=wrap;html=1;" parent="15" vertex="1">
                    <mxGeometry x="70" y="50" width="120" height="60" as="geometry"/>
                </mxCell>
                <mxCell id="11" value="container:&amp;nbsp;&lt;span style=&quot;color: rgb(163, 21, 21); background-color: rgb(255, 255, 255); font-family: Consolas, &amp;quot;Courier New&amp;quot;, monospace; font-size: 14px;&quot;&gt;edge-md-0-&lt;/span&gt;&lt;br&gt;img: kindest/node:v1.26.3" style="text;html=1;align=center;verticalAlign=middle;resizable=0;points=[];autosize=1;strokeColor=none;fillColor=none;" parent="26" vertex="1">
                    <mxGeometry y="20" width="160" height="40" as="geometry"/>
                </mxCell>
            </root>
        </mxGraphModel>
    </diagram>
</mxfile>